<?xml version="1.0" encoding="UTF-8" standalone="no"?>
<svg
   xmlns:dc="http://purl.org/dc/elements/1.1/"
   xmlns:cc="http://creativecommons.org/ns#"
   xmlns:rdf="http://www.w3.org/1999/02/22-rdf-syntax-ns#"
   xmlns:svg="http://www.w3.org/2000/svg"
   xmlns="http://www.w3.org/2000/svg"
   xmlns:xlink="http://www.w3.org/1999/xlink"
   xmlns:sodipodi="http://sodipodi.sourceforge.net/DTD/sodipodi-0.dtd"
   xmlns:inkscape="http://www.inkscape.org/namespaces/inkscape"
   sodipodi:docname="ic_button_dpad_pressed_right.svg"
   inkscape:version="1.0 (4035a4fb49, 2020-05-01)"
   id="svg8"
   version="1.1"
   viewBox="0 0 10 10"
   height="10"
   width="10">
  <defs
     id="defs2">
    <linearGradient
       id="linearGradient13887"
       inkscape:collect="always">
      <stop
         id="stop13883"
         offset="0"
         style="stop-color:#ffffff;stop-opacity:0.1" />
      <stop
         id="stop13885"
         offset="1"
         style="stop-color:#ffffff;stop-opacity:0;" />
    </linearGradient>
    <filter
       id="filter7804"
       inkscape:label="Blur"
       style="color-interpolation-filters:sRGB">
      <feGaussianBlur
         id="feGaussianBlur7802"
         result="blur"
         stdDeviation="1 1" />
    </filter>
    <filter
       id="filter8500"
       inkscape:label="Blur"
       style="color-interpolation-filters:sRGB">
      <feGaussianBlur
         id="feGaussianBlur8498"
         result="blur"
         stdDeviation="1 1" />
    </filter>
    <radialGradient
       gradientTransform="matrix(1.547619,0,0,1.5714284,9.142856,-593.13326)"
       gradientUnits="userSpaceOnUse"
       r="42"
       fy="395.26666"
       fx="18"
       cy="395.26666"
       cx="18"
       id="radialGradient13889"
       xlink:href="#linearGradient13887"
       inkscape:collect="always" />
  </defs>
  <sodipodi:namedview
     inkscape:snap-nodes="false"
     inkscape:snap-others="false"
     inkscape:document-rotation="0"
     fit-margin-bottom="0"
     fit-margin-right="0"
     fit-margin-left="0"
     fit-margin-top="0"
     inkscape:snap-grids="true"
     inkscape:snap-global="true"
     inkscape:snap-bbox-edge-midpoints="true"
     inkscape:bbox-nodes="true"
     inkscape:snap-bbox-midpoints="true"
     inkscape:snap-bbox="true"
     inkscape:window-maximized="0"
     inkscape:window-y="52"
     inkscape:window-x="0"
     inkscape:window-height="848"
     inkscape:window-width="1440"
     inkscape:measure-end="0,0"
     inkscape:measure-start="0,0"
     units="px"
     showgrid="true"
     inkscape:current-layer="layer1"
     inkscape:document-units="px"
     inkscape:cy="5.3739005"
     inkscape:cx="8.4586058"
     inkscape:zoom="26.408141"
     inkscape:pageshadow="2"
     inkscape:pageopacity="0.0"
     borderopacity="1.0"
     bordercolor="#666666"
     pagecolor="#ffffff"
     id="base">
    <inkscape:grid
       originy="-39"
       originx="-40"
       empspacing="4"
       empopacity="0.1254902"
       empcolor="#3f3fff"
       opacity="0.0627451"
       color="#3f3fff"
       id="grid20"
       type="xygrid" />
  </sodipodi:namedview>
  <metadata
     id="metadata5">
    <rdf:RDF>
      <cc:Work
         rdf:about="">
        <dc:format>image/svg+xml</dc:format>
        <dc:type
           rdf:resource="http://purl.org/dc/dcmitype/StillImage" />
        <dc:title></dc:title>
      </cc:Work>
    </rdf:RDF>
  </metadata>
  <g
     style="display:inline"
     transform="translate(-40,-207)"
     inkscape:label="Background"
     id="layer2"
     inkscape:groupmode="layer" />
  <g
     transform="translate(-40,-436.26665)"
     id="layer1"
     inkscape:groupmode="layer"
     inkscape:label="Foreground">
    <path
       inkscape:connector-curvature="0"
       id="path956"
       d="m 44.333984,436.26665 c -0.554,0 -1,0.446 -1,1 v 2.33398 H 41 c -0.554,0 -1,0.446 -1,1 v 1.33204 c 0,0.554 0.446,1 1,1 h 2.333984 v 2.33398 c 0,0.554 0.446,1 1,1 h 1.332032 c 0.554,0 1,-0.446 1,-1 v -2.33398 H 49 c 0.554,0 1,-0.446 1,-1 v -1.33204 c 0,-0.554 -0.446,-1 -1,-1 h -2.333984 v -2.33398 c 0,-0.554 -0.446,-1 -1,-1 z"
       style="fill:#373737;fill-opacity:1;stroke:none;stroke-width:1.48926;stroke-miterlimit:4;stroke-dasharray:none;stroke-opacity:1" />
    <path
       id="path958"
       style="opacity:0.2;fill:#f4f4f4;fill-opacity:1;stroke:none;stroke-width:1.48926;stroke-miterlimit:4;stroke-dasharray:none;stroke-opacity:1"
       d="m 44.333984,436.26665 c -0.554,0 -1,0.446 -1,1 v 0.69922 1.63476 h 0.199219 v -2.07226 c 0,-0.36091 0.463559,-0.76172 0.800781,-0.76172 h 1.332032 c 0.30445,0 0.566879,0.0831 0.75,0.24219 -0.115163,-0.42522 -0.486576,-0.74219 -0.949219,-0.74219 h -0.933594 z m -1,3.33398 H 41.199219 41 c -0.554,0 -1,0.446 -1,1 v 0.63282 c 0,0.21654 0.08312,0.43823 0.199219,0.63867 v -1.01047 c 0,-0.36091 0.463558,-0.76102 0.800781,-0.76102 h 2.333984 z m 3.332032,0 v 0.5 H 49 c 0.304451,10e-6 0.566879,0.0831 0.75,0.24219 -0.115162,-0.42522 -0.486575,-0.74219 -0.949219,-0.74219 z m -3.332032,3.33204 v 1.63476 c 0,0.21655 0.08312,0.43823 0.199219,0.63867 v -2.27343 z"
       sodipodi:nodetypes="sscccssscscsccssscssccccccsccsccc" />
    <path
       id="path978"
       style="opacity:0.2;fill:#202020;fill-opacity:1;stroke:none;stroke-width:1.48926;stroke-miterlimit:4;stroke-dasharray:none;stroke-opacity:1"
       d="m 46.416016,437.00884 c 0.02274,0.084 0.05078,0.16645 0.05078,0.25781 v 2.33398 h 0.199219 v -2.0332 c 0,-0.24955 -0.0999,-0.42819 -0.249999,-0.55859 z M 49.75,440.34282 c 0.02274,0.084 0.05078,0.16646 0.05078,0.25781 v 1.33204 c 0,0.0922 -0.02961,0.17514 -0.05273,0.25976 -0.18311,0.15817 -0.444258,0.24023 -0.74805,0.24024 h -2.333984 v 0.5 H 48.800781 49 c 0.554,0 1,-0.446 1,-1 v -0.30079 -0.73046 c 0,-0.24955 -0.0999,-0.4282 -0.25,-0.5586 z m -3.083984,2.58985 h -0.199219 v 2.33398 c 0,0.0922 -0.02961,0.17514 -0.05273,0.25977 -0.183106,0.15816 -0.444255,0.24023 -0.748046,0.24023 h -1.332032 c -0.337455,0 -0.619859,-0.24819 -0.800781,-0.56055 v 0.0606 c 0,0.554 0.446,1 1,1 h 0.933594 0.199219 c 0.554,0 1,-0.446 1,-1 v -0.30078 z m -6.466797,-1.06055 v 0.0605 c 0,0.554 0.446,1 1,1 h 2.134765 v -0.5 H 41 c -0.337456,0 -0.619859,-0.24819 -0.800781,-0.56055 z" />
  </g>
  <g
     transform="translate(-40,-59)"
     style="display:inline"
     inkscape:label="Finish"
     id="layer4"
     inkscape:groupmode="layer" />
  <g
     transform="translate(-40,-59)"
     inkscape:label="Reserved"
     id="layer3"
     inkscape:groupmode="layer" />
</svg>
