<?xml version="1.0" encoding="UTF-8" standalone="no"?>
<svg
   xmlns:dc="http://purl.org/dc/elements/1.1/"
   xmlns:cc="http://creativecommons.org/ns#"
   xmlns:rdf="http://www.w3.org/1999/02/22-rdf-syntax-ns#"
   xmlns:svg="http://www.w3.org/2000/svg"
   xmlns="http://www.w3.org/2000/svg"
   xmlns:xlink="http://www.w3.org/1999/xlink"
   xmlns:sodipodi="http://sodipodi.sourceforge.net/DTD/sodipodi-0.dtd"
   xmlns:inkscape="http://www.inkscape.org/namespaces/inkscape"
   sodipodi:docname="ic_button_dpad_pressed_up_right.svg"
   inkscape:version="1.0 (4035a4fb49, 2020-05-01)"
   id="svg8"
   version="1.1"
   viewBox="0 0 10 10"
   height="10"
   width="10">
  <defs
     id="defs2">
    <linearGradient
       id="linearGradient13887"
       inkscape:collect="always">
      <stop
         id="stop13883"
         offset="0"
         style="stop-color:#ffffff;stop-opacity:0.1" />
      <stop
         id="stop13885"
         offset="1"
         style="stop-color:#ffffff;stop-opacity:0;" />
    </linearGradient>
    <filter
       id="filter7804"
       inkscape:label="Blur"
       style="color-interpolation-filters:sRGB">
      <feGaussianBlur
         id="feGaussianBlur7802"
         result="blur"
         stdDeviation="1 1" />
    </filter>
    <filter
       id="filter8500"
       inkscape:label="Blur"
       style="color-interpolation-filters:sRGB">
      <feGaussianBlur
         id="feGaussianBlur8498"
         result="blur"
         stdDeviation="1 1" />
    </filter>
    <radialGradient
       gradientTransform="matrix(1.547619,0,0,1.5714284,9.142856,-593.13326)"
       gradientUnits="userSpaceOnUse"
       r="42"
       fy="395.26666"
       fx="18"
       cy="395.26666"
       cx="18"
       id="radialGradient13889"
       xlink:href="#linearGradient13887"
       inkscape:collect="always" />
  </defs>
  <sodipodi:namedview
     inkscape:document-rotation="0"
     fit-margin-bottom="0"
     fit-margin-right="0"
     fit-margin-left="0"
     fit-margin-top="0"
     inkscape:snap-grids="true"
     inkscape:snap-global="true"
     inkscape:snap-bbox-edge-midpoints="true"
     inkscape:bbox-nodes="true"
     inkscape:snap-bbox-midpoints="true"
     inkscape:snap-bbox="true"
     inkscape:window-maximized="0"
     inkscape:window-y="52"
     inkscape:window-x="0"
     inkscape:window-height="848"
     inkscape:window-width="1440"
     inkscape:measure-end="0,0"
     inkscape:measure-start="0,0"
     units="px"
     showgrid="true"
     inkscape:current-layer="layer1"
     inkscape:document-units="px"
     inkscape:cy="4.1652472"
     inkscape:cx="4.0600914"
     inkscape:zoom="37.007177"
     inkscape:pageshadow="2"
     inkscape:pageopacity="0.0"
     borderopacity="1.0"
     bordercolor="#666666"
     pagecolor="#ffffff"
     id="base">
    <inkscape:grid
       originy="-39"
       originx="-40"
       empspacing="4"
       empopacity="0.1254902"
       empcolor="#3f3fff"
       opacity="0.0627451"
       color="#3f3fff"
       id="grid20"
       type="xygrid" />
  </sodipodi:namedview>
  <metadata
     id="metadata5">
    <rdf:RDF>
      <cc:Work
         rdf:about="">
        <dc:format>image/svg+xml</dc:format>
        <dc:type
           rdf:resource="http://purl.org/dc/dcmitype/StillImage" />
        <dc:title></dc:title>
      </cc:Work>
    </rdf:RDF>
  </metadata>
  <g
     style="display:inline"
     transform="translate(-40,-207)"
     inkscape:label="Background"
     id="layer2"
     inkscape:groupmode="layer" />
  <g
     transform="translate(-40,-436.26665)"
     id="layer1"
     inkscape:groupmode="layer"
     inkscape:label="Foreground">
    <path
       style="fill:#373737;fill-opacity:1;stroke:none;stroke-width:1.48925686;stroke-miterlimit:4;stroke-dasharray:none;stroke-opacity:1"
       d="m 44.333984,436.26665 c -0.554,0 -1,0.446 -1,1 v 2.33398 H 41 c -0.554,0 -1,0.446 -1,1 v 1.33204 c 0,0.554 0.446,1 1,1 h 2.333984 v 2.33398 c 0,0.554 0.446,1 1,1 h 1.332032 c 0.554,0 1,-0.446 1,-1 v -2.33398 H 49 c 0.554,0 1,-0.446 1,-1 v -1.33204 c 0,-0.554 -0.446,-1 -1,-1 h -2.333984 v -2.33398 c 0,-0.554 -0.446,-1 -1,-1 z"
       id="rect5131"
       inkscape:connector-curvature="0" />
    <path
       d="m 46.390625,436.88579 c 0.0481,0.11731 0.07617,0.24582 0.07617,0.38086 v 2.33398 h 0.199219 v -2.0332 c 0,-0.26582 -0.10737,-0.50289 -0.275391,-0.68164 z m 3.333984,3.33399 c 0.0481,0.1173 0.07617,0.24582 0.07617,0.38085 v 0.99415 c 0,0.30835 -0.463879,0.62423 -0.800781,0.63867 h -2.333984 v 0.69922 H 48.800781 49 c 0.554,0 1,-0.446 1,-1 v -0.69922 -0.33203 c 0,-0.26582 -0.10737,-0.50289 -0.275391,-0.68164 z m -3.058593,2.71289 h -0.199219 v 2.0039 c 0,0.31222 -0.463419,0.63086 -0.800781,0.63086 h -1.332032 c -0.337617,0 -0.619884,-0.17686 -0.800781,-0.43164 v 0.13086 c 0,0.554 0.446,1 1,1 h 0.933594 0.199219 c 0.554,0 1,-0.446 1,-1 v -0.69922 z m -6.466797,-1.13086 v 0.13086 c 0,0.554 0.446,1 1,1 h 2.134765 v -0.69922 H 41 c -0.337617,0 -0.619884,-0.17686 -0.800781,-0.43164 z"
       style="opacity:0.2;fill:#202020;fill-opacity:1;stroke:none;stroke-width:1.48926;stroke-miterlimit:4;stroke-dasharray:none;stroke-opacity:1"
       id="path14601" />
    <path
       d="m 44.333984,436.26665 c -0.554,0 -1,0.446 -1,1 v 0.30078 2.0332 h 0.199219 v -2.33398 c 0,-0.1357 3.54e-4,-0.28044 0.07617,-0.38281 0.158264,-0.2137 0.436474,-0.31641 0.724609,-0.31641 h 1.332032 c 0.288182,0 0.542451,0.12457 0.724609,0.31836 -0.149241,-0.36396 -0.504866,-0.61914 -0.923828,-0.61914 h -0.933594 z m -1,3.33398 H 41.199219 41 c -0.554,0 -1,0.446 -1,1 v 0.30079 0.33203 c 0,0.21638 0.08328,0.40507 0.199219,0.56836 v -1.20118 c 0,-0.1385 0.02766,-0.2709 0.07813,-0.39062 0.0077,-0.008 0.01152,-0.0193 0.01953,-0.0273 0.180567,-0.18186 0.427945,-0.29304 0.703125,-0.28125 h 2.333984 z m 3.332032,0 v 0.30079 H 49 c 0.288183,0 0.542451,0.12456 0.724609,0.31836 -0.14924,-0.36396 -0.504865,-0.61915 -0.923828,-0.61915 z m -3.332032,3.33204 v 1.63476 c 0,0.21638 0.08328,0.40507 0.199219,0.56836 v -2.20312 z"
       style="opacity:0.2;fill:#f4f4f4;fill-opacity:1;stroke:none;stroke-width:1.48926;stroke-miterlimit:4;stroke-dasharray:none;stroke-opacity:1"
       id="path1744" />
  </g>
  <g
     transform="translate(-40,-59)"
     style="display:inline"
     inkscape:label="Finish"
     id="layer4"
     inkscape:groupmode="layer" />
  <g
     transform="translate(-40,-59)"
     inkscape:label="Reserved"
     id="layer3"
     inkscape:groupmode="layer" />
</svg>
