<?xml version="1.0" encoding="UTF-8" standalone="no"?>
<svg
   xmlns:dc="http://purl.org/dc/elements/1.1/"
   xmlns:cc="http://creativecommons.org/ns#"
   xmlns:rdf="http://www.w3.org/1999/02/22-rdf-syntax-ns#"
   xmlns:svg="http://www.w3.org/2000/svg"
   xmlns="http://www.w3.org/2000/svg"
   xmlns:xlink="http://www.w3.org/1999/xlink"
   xmlns:sodipodi="http://sodipodi.sourceforge.net/DTD/sodipodi-0.dtd"
   xmlns:inkscape="http://www.inkscape.org/namespaces/inkscape"
   sodipodi:docname="ic_button_dpad_pressed_down.svg"
   inkscape:version="1.0 (4035a4fb49, 2020-05-01)"
   id="svg8"
   version="1.1"
   viewBox="0 0 10 10"
   height="10"
   width="10">
  <defs
     id="defs2">
    <linearGradient
       id="linearGradient13887"
       inkscape:collect="always">
      <stop
         id="stop13883"
         offset="0"
         style="stop-color:#ffffff;stop-opacity:0.1" />
      <stop
         id="stop13885"
         offset="1"
         style="stop-color:#ffffff;stop-opacity:0;" />
    </linearGradient>
    <filter
       id="filter7804"
       inkscape:label="Blur"
       style="color-interpolation-filters:sRGB">
      <feGaussianBlur
         id="feGaussianBlur7802"
         result="blur"
         stdDeviation="1 1" />
    </filter>
    <filter
       id="filter8500"
       inkscape:label="Blur"
       style="color-interpolation-filters:sRGB">
      <feGaussianBlur
         id="feGaussianBlur8498"
         result="blur"
         stdDeviation="1 1" />
    </filter>
    <radialGradient
       gradientTransform="matrix(1.547619,0,0,1.5714284,9.142856,-593.13326)"
       gradientUnits="userSpaceOnUse"
       r="42"
       fy="395.26666"
       fx="18"
       cy="395.26666"
       cx="18"
       id="radialGradient13889"
       xlink:href="#linearGradient13887"
       inkscape:collect="always" />
  </defs>
  <sodipodi:namedview
     inkscape:document-rotation="0"
     fit-margin-bottom="0"
     fit-margin-right="0"
     fit-margin-left="0"
     fit-margin-top="0"
     inkscape:snap-grids="true"
     inkscape:snap-global="true"
     inkscape:snap-bbox-edge-midpoints="true"
     inkscape:bbox-nodes="true"
     inkscape:snap-bbox-midpoints="true"
     inkscape:snap-bbox="true"
     inkscape:window-maximized="0"
     inkscape:window-y="52"
     inkscape:window-x="0"
     inkscape:window-height="848"
     inkscape:window-width="1440"
     inkscape:measure-end="0,0"
     inkscape:measure-start="0,0"
     units="px"
     showgrid="true"
     inkscape:current-layer="layer1"
     inkscape:document-units="px"
     inkscape:cy="4.6753964"
     inkscape:cx="2.7233542"
     inkscape:zoom="41.135211"
     inkscape:pageshadow="2"
     inkscape:pageopacity="0.0"
     borderopacity="1.0"
     bordercolor="#666666"
     pagecolor="#ffffff"
     id="base">
    <inkscape:grid
       originy="-39"
       originx="-40"
       empspacing="4"
       empopacity="0.1254902"
       empcolor="#3f3fff"
       opacity="0.0627451"
       color="#3f3fff"
       id="grid20"
       type="xygrid" />
  </sodipodi:namedview>
  <metadata
     id="metadata5">
    <rdf:RDF>
      <cc:Work
         rdf:about="">
        <dc:format>image/svg+xml</dc:format>
        <dc:type
           rdf:resource="http://purl.org/dc/dcmitype/StillImage" />
        <dc:title></dc:title>
      </cc:Work>
    </rdf:RDF>
  </metadata>
  <g
     style="display:inline"
     transform="translate(-40,-207)"
     inkscape:label="Background"
     id="layer2"
     inkscape:groupmode="layer" />
  <g
     transform="translate(-40,-436.26665)"
     id="layer1"
     inkscape:groupmode="layer"
     inkscape:label="Foreground">
    <path
       style="fill:#373737;fill-opacity:1;stroke:none;stroke-width:1.48925686;stroke-miterlimit:4;stroke-dasharray:none;stroke-opacity:1"
       d="m 44.333984,436.26665 c -0.554,0 -1,0.446 -1,1 v 2.33398 H 41 c -0.554,0 -1,0.446 -1,1 v 1.33204 c 0,0.554 0.446,1 1,1 h 2.333984 v 2.33398 c 0,0.554 0.446,1 1,1 h 1.332032 c 0.554,0 1,-0.446 1,-1 v -2.33398 H 49 c 0.554,0 1,-0.446 1,-1 v -1.33204 c 0,-0.554 -0.446,-1 -1,-1 h -2.333984 v -2.33398 c 0,-0.554 -0.446,-1 -1,-1 z"
       id="rect5131"
       inkscape:connector-curvature="0" />
    <path
       sodipodi:nodetypes="sscsscssssscsccsccscssc"
       inkscape:connector-curvature="0"
       id="path14596"
       transform="translate(0,377.26665)"
       d="m 44.333984,59 c -0.554,0 -1,0.446 -1,1 v 0.700008 c 0,-0.554 0.446,-1 1,-1 h 1.332032 c 0.554,0 1,0.446 1,1 V 60 c 0,-0.554 -0.446,-1 -1,-1 z M 41,62.333984 c -0.554,0 -1,0.446 -1,1 v 0.700008 c 0,-0.554 0.446,-1 1,-1 h 2.333984 v -0.700008 z m 5.666016,0 v 0.700008 H 49 c 0.554,0 1,0.446 1,1 v -0.700008 c 0,-0.554 -0.446,-1 -1,-1 z"
       style="opacity:0.2;fill:#f4f4f4;fill-opacity:1;stroke:none;stroke-width:1.48926;stroke-miterlimit:4;stroke-dasharray:none;stroke-opacity:1" />
    <path
       sodipodi:nodetypes="cssccsccsccssccsssscssc"
       inkscape:connector-curvature="0"
       id="path14601"
       transform="translate(0,377.26665)"
       d="m 40,64.366008 v 0.300008 c 0,0.554 0.446,1 1,1 h 2.333984 V 65.366008 H 41 c -0.554,0 -1,-0.446 -1,-1 z m 10,0 c 0,0.554 -0.446,1 -1,1 h -2.333984 v 0.300008 H 49 c 0.554,0 1,-0.446 1,-1 z m -6.666016,3.333984 V 68 c 0,0.554 0.446,1 1,1 h 1.332032 c 0.554,0 1,-0.446 1,-1 v -0.300008 c 0,0.554 -0.446,1 -1,1 h -1.332032 c -0.554,0 -1,-0.446 -1,-1 z"
       style="opacity:0.2;fill:#202020;fill-opacity:1;stroke:none;stroke-width:1.48926;stroke-miterlimit:4;stroke-dasharray:none;stroke-opacity:1" />
  </g>
  <g
     transform="translate(-40,-59)"
     style="display:inline"
     inkscape:label="Finish"
     id="layer4"
     inkscape:groupmode="layer" />
  <g
     transform="translate(-40,-59)"
     inkscape:label="Reserved"
     id="layer3"
     inkscape:groupmode="layer" />
</svg>
