<?xml version="1.0" encoding="UTF-8"?>
<svg width="108" height="108" version="1.1" viewBox="0 0 108 108" xmlns="http://www.w3.org/2000/svg" xmlns:cc="http://creativecommons.org/ns#" xmlns:dc="http://purl.org/dc/elements/1.1/" xmlns:rdf="http://www.w3.org/1999/02/22-rdf-syntax-ns#" xmlns:xlink="http://www.w3.org/1999/xlink">
 <defs>
  <radialGradient id="radialGradient13889" cx="18" cy="395.3" r="42" gradientTransform="matrix(1.548 0 0 1.571 13.14 -587.1)" gradientUnits="userSpaceOnUse">
   <stop stop-color="#fff" stop-opacity=".1" offset="0"/>
   <stop stop-color="#fff" stop-opacity="0" offset="1"/>
  </radialGradient>
  <filter id="filter921" x="-.12" y="-.08" width="1.24" height="1.16" color-interpolation-filters="sRGB">
   <feGaussianBlur stdDeviation="1.4999999"/>
  </filter>
 </defs>
 <metadata>
  <rdf:RDF>
   <cc:Work rdf:about="">
    <dc:format>image/svg+xml</dc:format>
    <dc:type rdf:resource="http://purl.org/dc/dcmitype/StillImage"/>
   </cc:Work>
  </rdf:RDF>
 </metadata>
 <g transform="translate(0 -377.3)">
  <path d="m41.83 410.8c-0.4617 0-0.8333 0.386-0.8333 0.8654v41.54h0.0032a1.667 1.731 0 0 0 1.094 1.626s3.07 0.9702 13.9 0.9702 13.9-0.9702 13.9-0.9702a1.667 1.731 0 0 0 1.094-1.626h0.0032v-41.54c0-0.4794-0.3717-0.8654-0.8333-0.8654z" filter="url(#filter921)" opacity=".2"/>
  <path d="m39.88 408.8c-0.4888 0-0.8824 0.3956-0.8824 0.8871v43.47c0 0.4914 0.3935 0.8871 0.8824 0.8871h24.71c2.444 0 4.412-1.978 4.412-4.435v-39.92c0-0.4914-0.3935-0.8871-0.8824-0.8871z" fill="#c6c0bd" style="paint-order:stroke fill markers"/>
  <path d="m69 448.7c0 2.455-1.968 4.432-4.412 4.432h-24.71c-0.4888 0-0.8824-0.3953-0.8824-0.8864v0.8864c0 0.4911 0.3935 0.8864 0.8824 0.8864h24.71c2.444 0 4.412-1.977 4.412-4.432z" opacity=".2" style="paint-order:stroke fill markers"/>
  <path transform="translate(0 377.3)" d="m39.83 31.5c-0.4617 0-0.834 0.3858-0.834 0.8652v1c0-0.4794 0.3723-0.8652 0.834-0.8652h28.33c0.4617 0 0.834 0.3858 0.834 0.8652v-1c0-0.4794-0.3723-0.8652-0.834-0.8652h-28.33z" fill="#fff" opacity=".2"/>
  <g transform="translate(-6.5 4)">
   <circle cx="63.6" cy="440.7" r="2.6" fill="#9c2457"/>
   <path transform="translate(0 377.3)" d="m63.6 60.8a2.6 2.6 0 0 0-2.6 2.6 2.6 2.6 0 0 0 0.01367 0.2402 2.6 2.6 0 0 1 2.586-2.34 2.6 2.6 0 0 1 2.588 2.359 2.6 2.6 0 0 0 0.01172-0.2598 2.6 2.6 0 0 0-2.6-2.6z" fill="#fbfbfb" opacity=".2"/>
   <path transform="translate(0 377.3)" d="m61.01 63.15a2.6 2.6 0 0 0-0.01367 0.2539 2.6 2.6 0 0 0 2.6 2.6 2.6 2.6 0 0 0 2.6-2.6 2.6 2.6 0 0 0-0.01172-0.2363 2.6 2.6 0 0 1-2.588 2.336 2.6 2.6 0 0 1-2.586-2.354z" opacity=".2"/>
  </g>
  <rect x="40.75" y="410.8" width="26.5" height="24" ry=".8889" fill="#8b888e"/>
  <rect x="43.75" y="413.5" width="20.5" height="18.5" ry=".881" fill="#8ac52c"/>
  <circle cx="63.6" cy="440.7" r="2.6" fill="#9c2457"/>
  <path transform="translate(0 377.3)" d="m63.6 60.8a2.6 2.6 0 0 0-2.6 2.6 2.6 2.6 0 0 0 0.01367 0.2402 2.6 2.6 0 0 1 2.586-2.34 2.6 2.6 0 0 1 2.588 2.359 2.6 2.6 0 0 0 0.01172-0.2598 2.6 2.6 0 0 0-2.6-2.6z" fill="#fbfbfb" opacity=".2"/>
  <path transform="translate(0 377.3)" d="m61.01 63.15a2.6 2.6 0 0 0-0.01367 0.2539 2.6 2.6 0 0 0 2.6 2.6 2.6 2.6 0 0 0 2.6-2.6 2.6 2.6 0 0 0-0.01172-0.2363 2.6 2.6 0 0 1-2.588 2.336 2.6 2.6 0 0 1-2.586-2.354z" opacity=".2"/>
  <path d="m46.05 436.8c-0.5817 0-1.05 0.4683-1.05 1.05v2.451h-2.451c-0.5817 0-1.05 0.4683-1.05 1.05v1.399c0 0.5817 0.4683 1.05 1.05 1.05h2.451v2.451c0 0.5817 0.4683 1.05 1.05 1.05h1.399c0.5817 0 1.05-0.4683 1.05-1.05v-2.451h2.451c0.5817 0 1.05-0.4683 1.05-1.05v-1.399c0-0.5817-0.4683-1.05-1.05-1.05h-2.451v-2.451c0-0.5817-0.4683-1.05-1.05-1.05z" fill="#373737"/>
  <path transform="translate(0 377.3)" d="m46.05 59.5c-0.5817 0-1.051 0.4691-1.051 1.051v0.5c0-0.5817 0.4691-1.051 1.051-1.051h1.398c0.5817 0 1.051 0.4691 1.051 1.051v-0.5c0-0.5817-0.4691-1.051-1.051-1.051zm-3.5 3.5c-0.5817 0-1.051 0.4691-1.051 1.051v0.5c0-0.5817 0.4691-1.051 1.051-1.051h2.449v-0.5zm5.949 0v0.5h2.449c0.5817 0 1.051 0.4691 1.051 1.051v-0.5c0-0.5817-0.4691-1.051-1.051-1.051z" fill="#fff" opacity=".2"/>
  <path transform="translate(0 377.3)" d="m41.5 64.95v0.5c0 0.5817 0.4691 1.051 1.051 1.051h2.449v-0.5h-2.449c-0.5817 0-1.051-0.4691-1.051-1.051zm10.5 0c0 0.5817-0.4691 1.051-1.051 1.051h-2.449v0.5h2.449c0.5817 0 1.051-0.4691 1.051-1.051zm-7 3.5v0.5c0 0.5817 0.4691 1.051 1.051 1.051h1.398c0.5817 0 1.051-0.4691 1.051-1.051v-0.5c0 0.5817-0.4691 1.051-1.051 1.051h-1.398c-0.5817 0-1.051-0.4691-1.051-1.051z" opacity=".2"/>
 </g>
 <g>
  <ellipse cx="41" cy="34" rx="65" ry="66" fill="url(#radialGradient13889)"/>
 </g>
</svg>
