<?xml version="1.0" encoding="UTF-8"?>
<svg width="18" height="18" version="1.1" viewBox="0 0 18 18" xmlns="http://www.w3.org/2000/svg" xmlns:cc="http://creativecommons.org/ns#" xmlns:dc="http://purl.org/dc/elements/1.1/" xmlns:rdf="http://www.w3.org/1999/02/22-rdf-syntax-ns#" xmlns:xlink="http://www.w3.org/1999/xlink">
 <metadata>
  <rdf:RDF>
   <cc:Work rdf:about="">
    <dc:format>image/svg+xml</dc:format>
    <dc:type rdf:resource="http://purl.org/dc/dcmitype/StillImage"/>
   </cc:Work>
  </rdf:RDF>
 </metadata>
 <path d="m4 1.5v14.1h0.0013c4.01e-5 0.242 0.146 0.458 0.365 0.542 0 0 1.02 0.324 4.63 0.324s4.63-0.324 4.63-0.324c0.219-0.0832 0.365-0.3 0.365-0.542h0.0013v-14.1zm8.6 1.5v6.4h-7.2v-6.4zm-5.4 7.8v1.2h1.2v1.2h-1.2v1.2h-1.2v-1.2h-1.2v-1.2h1.2v-1.2zm5 0.467c0.479 7.2e-5 0.866 0.388 0.867 0.867-7.2e-5 0.479-0.388 0.866-0.867 0.867-0.479-7.2e-5 -0.866-0.388-0.867-0.867 7.2e-5 -0.479 0.388-0.866 0.867-0.867zm-2.17 1.33c0.479 7.2e-5 0.866 0.388 0.867 0.867-7.2e-5 0.479-0.388 0.866-0.867 0.867-0.479-7.2e-5 -0.866-0.388-0.867-0.867 7.16e-5 -0.479 0.388-0.866 0.867-0.867z" fill="#fff"/>
</svg>
