<?xml version="1.0" encoding="UTF-8"?>
<!-- Created with Inkscape (http://www.inkscape.org/) -->
<svg width="108" height="108" version="1.1" viewBox="0 0 108 108" xmlns="http://www.w3.org/2000/svg" xmlns:cc="http://creativecommons.org/ns#" xmlns:dc="http://purl.org/dc/elements/1.1/" xmlns:rdf="http://www.w3.org/1999/02/22-rdf-syntax-ns#" xmlns:xlink="http://www.w3.org/1999/xlink">
 <defs>
  <radialGradient id="radialGradient13889" cx="18" cy="395.27" r="42" gradientTransform="matrix(1.5476 0 0 1.5714 13.143 -587.13)" gradientUnits="userSpaceOnUse">
   <stop stop-color="#fff" stop-opacity=".1" offset="0"/>
   <stop stop-color="#fff" stop-opacity="0" offset="1"/>
  </radialGradient>
  <filter id="filter921" x="-.12" y="-.08" width="1.24" height="1.16" color-interpolation-filters="sRGB">
   <feGaussianBlur stdDeviation="1.4999999"/>
  </filter>
 </defs>
 <metadata>
  <rdf:RDF>
   <cc:Work rdf:about="">
    <dc:format>image/svg+xml</dc:format>
    <dc:type rdf:resource="http://purl.org/dc/dcmitype/StillImage"/>
    <dc:title/>
   </cc:Work>
  </rdf:RDF>
 </metadata>
 <g transform="translate(0 -377.27)">
  <path d="m41.833 410.77c-0.46167 0-0.83334 0.38599-0.83334 0.8654v41.538h0.0032a1.6667 1.7308 0 0 0 1.0938 1.626s3.0697 0.97018 13.903 0.97018 13.903-0.97018 13.903-0.97018a1.6667 1.7308 0 0 0 1.0938-1.626h0.0032v-41.538c0-0.4794-0.37167-0.8654-0.83334-0.8654z" filter="url(#filter921)" opacity=".2"/>
  <path d="m39.833 408.77c-0.46167 0-0.83334 0.38599-0.83334 0.8654v41.538h0.0032a1.6667 1.7308 0 0 0 1.0938 1.626s3.0697 0.97018 13.903 0.97018 13.903-0.97018 13.903-0.97018a1.6667 1.7308 0 0 0 1.0938-1.626h0.0032v-41.538c0-0.4794-0.37167-0.8654-0.83334-0.8654z" fill="#fdd827"/>
  <path transform="translate(0 377.27)" d="m39.834 31.5c-0.46167 0-0.83398 0.38582-0.83398 0.86523v1c0-0.47941 0.37232-0.86523 0.83398-0.86523h28.332c0.46167 0 0.83398 0.38583 0.83398 0.86523v-1c0-0.4794-0.37232-0.86523-0.83398-0.86523h-28.332z" fill="#fff" opacity=".2"/>
  <path transform="translate(0 377.27)" d="m39 72.904v1h0.003906a1.6667 1.7308 0 0 0 1.0938 1.625s3.069 0.9707 13.902 0.9707 13.902-0.9707 13.902-0.9707a1.6667 1.7308 0 0 0 1.0938-1.625h0.003906v-1h-0.003906a1.6667 1.7308 0 0 1-1.0938 1.625s-3.069 0.9707-13.902 0.9707-13.902-0.9707-13.902-0.9707a1.6667 1.7308 0 0 1-1.0938-1.625h-0.003906z" opacity=".2"/>
  <g transform="translate(-6.5 4)">
   <circle cx="63.6" cy="440.67" r="2.6" fill="#373737"/>
   <path transform="translate(0 377.27)" d="m63.6 60.801a2.6 2.6 0 0 0-2.5996 2.5996 2.6 2.6 0 0 0 0.01367 0.24023 2.6 2.6 0 0 1 2.5859-2.3398 2.6 2.6 0 0 1 2.5879 2.3594 2.6 2.6 0 0 0 0.01172-0.25976 2.6 2.6 0 0 0-2.5996-2.5996z" fill="#fbfbfb" opacity=".2"/>
   <path transform="translate(0 377.27)" d="m61.014 63.146a2.6 2.6 0 0 0-0.013672 0.25391 2.6 2.6 0 0 0 2.5996 2.5996 2.6 2.6 0 0 0 2.5996-2.5996 2.6 2.6 0 0 0-0.011719-0.23633 2.6 2.6 0 0 1-2.5879 2.3359 2.6 2.6 0 0 1-2.5859-2.3535z" opacity=".2"/>
  </g>
  <rect x="40.75" y="410.77" width="26.5" height="24" ry=".88889" fill="#373737"/>
  <rect x="43.75" y="413.52" width="20.5" height="18.5" ry=".88095" fill="#c0c0c0"/>
  <circle cx="63.6" cy="440.67" r="2.6" fill="#373737"/>
  <path transform="translate(0 377.27)" d="m63.6 60.801a2.6 2.6 0 0 0-2.5996 2.5996 2.6 2.6 0 0 0 0.013672 0.24023 2.6 2.6 0 0 1 2.5859-2.3398 2.6 2.6 0 0 1 2.5879 2.3594 2.6 2.6 0 0 0 0.011719-0.25976 2.6 2.6 0 0 0-2.5996-2.5996z" fill="#fbfbfb" opacity=".2"/>
  <path transform="translate(0 377.27)" d="m61.014 63.146a2.6 2.6 0 0 0-0.013672 0.25391 2.6 2.6 0 0 0 2.5996 2.5996 2.6 2.6 0 0 0 2.5996-2.5996 2.6 2.6 0 0 0-0.011719-0.23633 2.6 2.6 0 0 1-2.5879 2.3359 2.6 2.6 0 0 1-2.5859-2.3535z" opacity=".2"/>
  <path d="m46.051 436.77c-0.5817 0-1.05 0.46832-1.05 1.05v2.4507h-2.4507c-0.5817 0-1.05 0.46829-1.05 1.05v1.3986c0 0.58171 0.4683 1.05 1.05 1.05h2.4507v2.4507c0 0.5817 0.4683 1.05 1.05 1.05h1.3986c0.5817 0 1.05-0.4683 1.05-1.05v-2.4507h2.4507c0.5817 0 1.05-0.46831 1.05-1.05v-1.3986c0-0.58171-0.4683-1.05-1.05-1.05h-2.4507v-2.4507c0-0.58171-0.4683-1.05-1.05-1.05z" fill="#373737"/>
  <path transform="translate(0 377.27)" d="m46.051 59.5c-0.5817 0-1.0508 0.46908-1.0508 1.0508v0.5c0-0.5817 0.46908-1.0508 1.0508-1.0508h1.3984c0.5817 0 1.0508 0.46907 1.0508 1.0508v-0.5c0-0.58171-0.46908-1.0508-1.0508-1.0508zm-3.5 3.5c-0.5817 0-1.0508 0.46907-1.0508 1.0508v0.5c0-0.58171 0.46908-1.0508 1.0508-1.0508h2.4492v-0.5zm5.9492 0v0.5h2.4492c0.5817 0 1.0508 0.46907 1.0508 1.0508v-0.5c0-0.58171-0.46908-1.0508-1.0508-1.0508z" fill="#fff" opacity=".2"/>
  <path transform="translate(0 377.27)" d="m41.5 64.949v0.5c0 0.58171 0.46908 1.0508 1.0508 1.0508h2.4492v-0.5h-2.4492c-0.5817 0-1.0508-0.46907-1.0508-1.0508zm10.5 0c0 0.58171-0.46908 1.0508-1.0508 1.0508h-2.4492v0.5h2.4492c0.5817 0 1.0508-0.46907 1.0508-1.0508zm-7 3.5v0.5c0 0.5817 0.46908 1.0508 1.0508 1.0508h1.3984c0.5817 0 1.0508-0.46908 1.0508-1.0508v-0.5c0 0.5817-0.46908 1.0508-1.0508 1.0508h-1.3984c-0.5817 0-1.0508-0.46908-1.0508-1.0508z" opacity=".2"/>
 </g>
 <g>
  <ellipse cx="41" cy="34" rx="65" ry="66" fill="url(#radialGradient13889)"/>
 </g>
</svg>
