<?xml version="1.0" encoding="UTF-8"?>
<svg width="108" height="108" version="1.1" viewBox="0 0 108 108" xmlns="http://www.w3.org/2000/svg" xmlns:cc="http://creativecommons.org/ns#" xmlns:dc="http://purl.org/dc/elements/1.1/" xmlns:rdf="http://www.w3.org/1999/02/22-rdf-syntax-ns#" xmlns:xlink="http://www.w3.org/1999/xlink">
 <metadata>
  <rdf:RDF>
   <cc:Work rdf:about="">
    <dc:format>image/svg+xml</dc:format>
    <dc:type rdf:resource="http://purl.org/dc/dcmitype/StillImage"/>
   </cc:Work>
  </rdf:RDF>
 </metadata>
 <path d="m39.8 31.5c-0.462 0-0.834 0.386-0.834 0.865v41.5h0.00391a1.67 1.73 0 0 0 1.09 1.62s3.07 0.971 13.9 0.971 13.9-0.971 13.9-0.971a1.67 1.73 0 0 0 1.09-1.62h0.00391v-41.5c0-0.479-0.372-0.865-0.834-0.865h-28.3zm1.8 2h24.7c0.492 0 0.889 0.396 0.889 0.889v22.2c0 0.492-0.396 0.889-0.889 0.889h-24.7c-0.492 0-0.889-0.396-0.889-0.889v-22.2c0-0.492 0.396-0.889 0.889-0.889zm2.99 2.75c-0.488 0-0.881 0.393-0.881 0.881v16.7c0 0.488 0.393 0.881 0.881 0.881h18.7c0.488 0 0.881-0.393 0.881-0.881v-16.7c0-0.488-0.393-0.881-0.881-0.881h-18.7zm1.42 23.2h1.4c0.582 0 1.05 0.469 1.05 1.05v2.45h2.45c0.582 0 1.05 0.469 1.05 1.05v1.4c0 0.582-0.469 1.05-1.05 1.05h-2.45v2.45c0 0.582-0.469 1.05-1.05 1.05h-1.4c-0.582 0-1.05-0.469-1.05-1.05v-2.45h-2.45c-0.582 0-1.05-0.469-1.05-1.05v-1.4c0-0.582 0.469-1.05 1.05-1.05h2.45v-2.45c0-0.582 0.469-1.05 1.05-1.05zm17.5 1.3a2.6 2.6 0 0 1 2.6 2.6 2.6 2.6 0 0 1-2.6 2.6 2.6 2.6 0 0 1-2.6-2.6 2.6 2.6 0 0 1 2.6-2.6zm-6.5 4a2.6 2.6 0 0 1 2.6 2.6 2.6 2.6 0 0 1-2.6 2.6 2.6 2.6 0 0 1-2.6-2.6 2.6 2.6 0 0 1 2.6-2.6z"/>
</svg>
