<?xml version="1.0" encoding="UTF-8"?>
<svg width="108" height="108" version="1.1" viewBox="0 0 108 108" xmlns="http://www.w3.org/2000/svg" xmlns:cc="http://creativecommons.org/ns#" xmlns:dc="http://purl.org/dc/elements/1.1/" xmlns:rdf="http://www.w3.org/1999/02/22-rdf-syntax-ns#" xmlns:xlink="http://www.w3.org/1999/xlink">
 <metadata>
  <rdf:RDF>
   <cc:Work rdf:about="">
    <dc:format>image/svg+xml</dc:format>
    <dc:type rdf:resource="http://purl.org/dc/dcmitype/StillImage"/>
   </cc:Work>
  </rdf:RDF>
 </metadata>
 <path d="m39.8 31.5c-0.462 0-0.834 0.386-0.834 0.865v41.5h0.00391a1.67 1.73 0 0 0 1.09 1.62s3.07 0.971 13.9 0.971 13.9-0.971 13.9-0.971a1.67 1.73 0 0 0 1.09-1.62h0.00391v-41.5c0-0.479-0.372-0.865-0.834-0.865h-28.3zm1.8 2h24.7c0.492 0 0.889 0.396 0.889 0.889v22.2c0 0.492-0.396 0.889-0.889 0.889h-24.7c-0.492 0-0.889-0.396-0.889-0.889v-22.2c0-0.492 0.396-0.889 0.889-0.889zm2.99 2.75c-0.488 0-0.881 0.393-0.881 0.881v16.7c0 0.488 0.393 0.881 0.881 0.881h18.7c0.488 0 0.881-0.393 0.881-0.881v-16.7c0-0.488-0.393-0.881-0.881-0.881h-18.7zm10.2 1.34h0.719l0.00195 1.11c0.143 0.0868 0.277 0.189 0.404 0.316 0.128 0.128 0.229 0.261 0.318 0.406h1.11v0.719h-0.832c0.0612 0.322 0.0491 0.651-0.0352 0.965l0.717 0.717-0.51 0.512-0.533-0.535c-0.0715 0.097-0.146 0.193-0.232 0.279l-0.256 0.256 0.51 0.51-0.51 0.51-0.51-0.51-0.256 0.256c-0.0868 0.0868-0.18 0.159-0.277 0.23l0.533 0.535-0.512 0.51-0.717-0.717c-0.722 0.191-1.52 0.00799-2.09-0.559-0.567-0.567-0.75-1.37-0.559-2.09l-0.717-0.717 0.51-0.51 0.533 0.533c0.0715-0.097 0.146-0.191 0.232-0.277l0.256-0.256-0.512-0.512 0.512-0.51 0.51 0.51 0.256-0.254c0.0868-0.0868 0.18-0.161 0.277-0.232l-0.533-0.533 0.51-0.512 0.719 0.719c0.314-0.0842 0.642-0.0978 0.961-0.0391l0.00391-0.83zm-0.662 2.19-0.51 0.51 1.02 1.02 0.512-0.51-1.02-1.02zm-1.02 1.02-0.51 0.51 1.02 1.02 0.51-0.512-1.02-1.02zm-4.86 3.38a0.312 0.312 0 0 1 0.334 0.148l1.52 2.63c1.16-0.529 2.46-0.824 3.85-0.824 1.39 0 2.69 0.295 3.85 0.824l1.52-2.63a0.312 0.312 0 1 1 0.539 0.312l-1.5 2.59c2.57 1.4 4.33 4 4.59 7.08h-18c0.257-3.08 2.02-5.68 4.59-7.08l-1.5-2.59a0.312 0.312 0 0 1 0.205-0.461zm1.45 6.08a0.75 0.75 0 0 0 0.107 1.49 0.75 0.75 0 0 0 0.75-0.75 0.75 0.75 0 0 0-0.857-0.742zm8.29 0a0.75 0.75 0 0 0 0.107 1.49 0.751 0.751 0 0 0 0.75-0.75 0.75 0.75 0 0 0-0.857-0.742zm-12 9.24h1.4c0.582 0 1.05 0.469 1.05 1.05v2.45h2.45c0.582 0 1.05 0.469 1.05 1.05v1.4c0 0.582-0.469 1.05-1.05 1.05h-2.45v2.45c0 0.582-0.469 1.05-1.05 1.05h-1.4c-0.582 0-1.05-0.469-1.05-1.05v-2.45h-2.45c-0.582 0-1.05-0.469-1.05-1.05v-1.4c0-0.582 0.469-1.05 1.05-1.05h2.45v-2.45c0-0.582 0.469-1.05 1.05-1.05zm17.5 1.3a2.6 2.6 0 0 1 2.6 2.6 2.6 2.6 0 0 1-2.6 2.6 2.6 2.6 0 0 1-2.6-2.6 2.6 2.6 0 0 1 2.6-2.6zm-6.5 4a2.6 2.6 0 0 1 2.6 2.6 2.6 2.6 0 0 1-2.6 2.6 2.6 2.6 0 0 1-2.6-2.6 2.6 2.6 0 0 1 2.6-2.6z"/>
</svg>
