<?xml version="1.0" encoding="UTF-8" standalone="no"?>
<svg
   xmlns:dc="http://purl.org/dc/elements/1.1/"
   xmlns:cc="http://creativecommons.org/ns#"
   xmlns:rdf="http://www.w3.org/1999/02/22-rdf-syntax-ns#"
   xmlns:svg="http://www.w3.org/2000/svg"
   xmlns="http://www.w3.org/2000/svg"
   xmlns:xlink="http://www.w3.org/1999/xlink"
   id="svg8"
   version="1.1"
   viewBox="0 0 108 108"
   height="108"
   width="108">
  <defs
     id="defs2">
    <linearGradient
       id="linearGradient13887">
      <stop
         id="stop13883"
         offset="0"
         style="stop-color:#ffffff;stop-opacity:0.1" />
      <stop
         id="stop13885"
         offset="1"
         style="stop-color:#ffffff;stop-opacity:0;" />
    </linearGradient>
    <filter
       id="filter7804"
       style="color-interpolation-filters:sRGB;">
      <feGaussianBlur
         id="feGaussianBlur7802"
         result="blur"
         stdDeviation="1 1" />
    </filter>
    <filter
       id="filter8500"
       style="color-interpolation-filters:sRGB;">
      <feGaussianBlur
         id="feGaussianBlur8498"
         result="blur"
         stdDeviation="1 1" />
    </filter>
    <radialGradient
       gradientTransform="matrix(1.547619,0,0,1.5714284,13.142856,-587.13326)"
       gradientUnits="userSpaceOnUse"
       r="42"
       fy="395.26666"
       fx="18"
       cy="395.26666"
       cx="18"
       id="radialGradient13889"
       xlink:href="#linearGradient13887" />
    <filter
       height="1.16"
       y="-0.079999994"
       width="1.24"
       x="-0.12000001"
       id="filter921"
       style="color-interpolation-filters:sRGB">
      <feGaussianBlur
         id="feGaussianBlur923"
         stdDeviation="1.4999999" />
    </filter>
  </defs>
  <metadata
     id="metadata5">
    <rdf:RDF>
      <cc:Work
         rdf:about="">
        <dc:format>image/svg+xml</dc:format>
        <dc:type
           rdf:resource="http://purl.org/dc/dcmitype/StillImage" />
        <dc:title></dc:title>
      </cc:Work>
    </rdf:RDF>
  </metadata>
  <g
     transform="translate(0,-148)"
     id="layer2" />
  <g
     transform="translate(0,-377.26665)"
     id="layer1">
    <path
       style="fill:#000000;fill-opacity:1;stroke:none;stroke-width:6.79367256;stroke-miterlimit:4;stroke-dasharray:none;stroke-opacity:1;opacity:0.2;filter:url(#filter921)"
       d="M 41.833337,410.76665 C 41.371668,410.76665 41,411.15264 41,411.63205 v 41.53844 h 0.0032 a 1.6666724,1.7307682 0 0 0 1.093753,1.62598 c 0,0 3.069674,0.97018 13.903044,0.97018 10.83337,0 13.903043,-0.97018 13.903043,-0.97018 a 1.6666724,1.7307682 0 0 0 1.093754,-1.62598 h 0.0032 v -41.53844 c 0,-0.4794 -0.371668,-0.8654 -0.833337,-0.8654 z"
       id="rect7684-6" />
    <g
       id="g894">
      <path
         style="fill:#fdd827;fill-opacity:1;stroke:none;stroke-width:6.79367256;stroke-miterlimit:4;stroke-dasharray:none;stroke-opacity:1"
         d="m 39.83334,408.76665 c -0.461669,0 -0.833337,0.38599 -0.833337,0.8654 v 41.53844 h 0.0032 a 1.6666724,1.7307682 0 0 0 1.093753,1.62598 c 0,0 3.069674,0.97018 13.903044,0.97018 10.83337,0 13.903043,-0.97018 13.903043,-0.97018 a 1.6666724,1.7307682 0 0 0 1.093754,-1.62598 h 0.0032 v -41.53844 c 0,-0.4794 -0.371668,-0.8654 -0.833337,-0.8654 z"
         id="rect7684" />
      <path
         style="fill:#ffffff;fill-opacity:1;stroke:none;stroke-width:6.79367256;stroke-miterlimit:4;stroke-dasharray:none;stroke-opacity:1;opacity:0.2"
         d="M 39.833984 31.5 C 39.372315 31.5 39 31.885824 39 32.365234 L 39 33.365234 C 39 32.885824 39.372315 32.5 39.833984 32.5 L 68.166016 32.5 C 68.627685 32.5 69 32.885834 69 33.365234 L 69 32.365234 C 69 31.885834 68.627685 31.5 68.166016 31.5 L 39.833984 31.5 z "
         transform="translate(0,377.26665)"
         id="path845" />
      <path
         style="fill:#000000;fill-opacity:1;stroke:none;stroke-width:6.79367256;stroke-miterlimit:4;stroke-dasharray:none;stroke-opacity:1;opacity:0.2"
         d="M 39 72.904297 L 39 73.904297 L 39.003906 73.904297 A 1.6666724 1.7307682 0 0 0 40.097656 75.529297 C 40.097656 75.529297 43.16663 76.5 54 76.5 C 64.83337 76.5 67.902344 75.529297 67.902344 75.529297 A 1.6666724 1.7307682 0 0 0 68.996094 73.904297 L 69 73.904297 L 69 72.904297 L 68.996094 72.904297 A 1.6666724 1.7307682 0 0 1 67.902344 74.529297 C 67.902344 74.529297 64.83337 75.5 54 75.5 C 43.16663 75.5 40.097656 74.529297 40.097656 74.529297 A 1.6666724 1.7307682 0 0 1 39.003906 72.904297 L 39 72.904297 z "
         transform="translate(0,377.26665)"
         id="path848" />
    </g>
    <g
       transform="translate(-6.4999986,4)"
       id="g874">
      <circle
         r="2.5999999"
         cy="440.66666"
         cx="63.599998"
         id="circle868"
         style="fill:#373737;fill-opacity:1;stroke:none;stroke-width:10.58053112;stroke-miterlimit:4;stroke-dasharray:none;stroke-opacity:1" />
      <path
         id="path870"
         transform="translate(0,377.26665)"
         d="M 63.599609,60.800781 A 2.5999999,2.5999999 0 0 0 61,63.400391 a 2.5999999,2.5999999 0 0 0 0.01367,0.240234 2.5999999,2.5999999 0 0 1 2.585937,-2.339844 2.5999999,2.5999999 0 0 1 2.587891,2.359375 2.5999999,2.5999999 0 0 0 0.01172,-0.259765 2.5999999,2.5999999 0 0 0 -2.599609,-2.59961 z"
         style="opacity:0.2;fill:#fbfbfb;fill-opacity:1;stroke:none;stroke-width:10.58053112;stroke-miterlimit:4;stroke-dasharray:none;stroke-opacity:1" />
      <path
         id="path872"
         transform="translate(0,377.26665)"
         d="M 61.013672,63.146484 A 2.5999999,2.5999999 0 0 0 61,63.400391 2.5999999,2.5999999 0 0 0 63.599609,66 2.5999999,2.5999999 0 0 0 66.199219,63.400391 2.5999999,2.5999999 0 0 0 66.1875,63.164062 2.5999999,2.5999999 0 0 1 63.599609,65.5 2.5999999,2.5999999 0 0 1 61.013672,63.146484 Z"
         style="opacity:0.2;fill:#000000;fill-opacity:1;stroke:none;stroke-width:10.58053112;stroke-miterlimit:4;stroke-dasharray:none;stroke-opacity:1" />
    </g>
    <g
       id="g898">
      <rect
         ry="0.88888896"
         y="410.76666"
         x="40.75"
         height="24"
         width="26.5"
         id="rect6404"
         style="fill:#373737;fill-opacity:1;stroke:none;stroke-width:2.99060988;stroke-miterlimit:4;stroke-dasharray:none;stroke-opacity:1" />
      <rect
         style="fill:#c0c0c0;fill-opacity:1;stroke:none;stroke-width:2.30937266;stroke-miterlimit:4;stroke-dasharray:none;stroke-opacity:1"
         id="rect6417"
         width="20.5"
         height="18.5"
         x="43.75"
         y="413.51666"
         ry="0.88095033" />
    </g>
    <g
       id="g866">
      <circle
         style="fill:#373737;fill-opacity:1;stroke:none;stroke-width:10.58053112;stroke-miterlimit:4;stroke-dasharray:none;stroke-opacity:1"
         id="path5137"
         cx="63.599998"
         cy="440.66666"
         r="2.5999999" />
      <path
         style="fill:#fbfbfb;fill-opacity:1;stroke:none;stroke-width:10.58053112;stroke-miterlimit:4;stroke-dasharray:none;stroke-opacity:1;opacity:0.2"
         d="M 63.599609 60.800781 A 2.5999999 2.5999999 0 0 0 61 63.400391 A 2.5999999 2.5999999 0 0 0 61.013672 63.640625 A 2.5999999 2.5999999 0 0 1 63.599609 61.300781 A 2.5999999 2.5999999 0 0 1 66.1875 63.660156 A 2.5999999 2.5999999 0 0 0 66.199219 63.400391 A 2.5999999 2.5999999 0 0 0 63.599609 60.800781 z "
         transform="translate(0,377.26665)"
         id="circle853" />
      <path
         style="fill:#000000;fill-opacity:1;stroke:none;stroke-width:10.58053112;stroke-miterlimit:4;stroke-dasharray:none;stroke-opacity:1;opacity:0.2"
         d="M 61.013672 63.146484 A 2.5999999 2.5999999 0 0 0 61 63.400391 A 2.5999999 2.5999999 0 0 0 63.599609 66 A 2.5999999 2.5999999 0 0 0 66.199219 63.400391 A 2.5999999 2.5999999 0 0 0 66.1875 63.164062 A 2.5999999 2.5999999 0 0 1 63.599609 65.5 A 2.5999999 2.5999999 0 0 1 61.013672 63.146484 z "
         transform="translate(0,377.26665)"
         id="circle858" />
    </g>
    <g
       id="g889">
      <path
         id="rect5131"
         d="m 46.050683,436.76665 c -0.5817,0 -1.050001,0.46832 -1.050001,1.05002 v 2.45066 H 42.55 c -0.5817,0 -1.05,0.46829 -1.05,1.05 v 1.39864 c 0,0.58171 0.4683,1.05002 1.05,1.05002 h 2.450682 v 2.45066 c 0,0.5817 0.468301,1.05 1.050001,1.05 h 1.398634 c 0.5817,0 1.050001,-0.4683 1.050001,-1.05 v -2.45066 h 2.450683 C 51.5317,443.76599 52,443.29768 52,442.71597 v -1.39864 c 0,-0.58171 -0.4683,-1.05 -1.049999,-1.05 h -2.450683 v -2.45066 c 0,-0.58171 -0.468301,-1.05002 -1.050001,-1.05002 z"
         style="fill:#373737;fill-opacity:1;stroke:none;stroke-width:1.56371975;stroke-miterlimit:4;stroke-dasharray:none;stroke-opacity:1" />
      <path
         style="opacity:0.2;fill:#ffffff;fill-opacity:1;stroke:none;stroke-width:1.56371975;stroke-miterlimit:4;stroke-dasharray:none;stroke-opacity:1"
         d="M 46.050781,59.5 C 45.469081,59.5 45,59.969081 45,60.550781 v 0.5 C 45,60.469081 45.469081,60 46.050781,60 h 1.398438 C 48.030919,60 48.5,60.469071 48.5,61.050781 v -0.5 C 48.5,59.969071 48.030919,59.5 47.449219,59.5 Z m -3.5,3.5 C 41.969081,63 41.5,63.469071 41.5,64.050781 v 0.5 C 41.5,63.969071 41.969081,63.5 42.550781,63.5 H 45 V 63 Z M 48.5,63 v 0.5 h 2.449219 C 51.530918,63.5 52,63.969071 52,64.550781 v -0.5 C 52,63.469071 51.530918,63 50.949219,63 Z"
         transform="translate(0,377.26665)"
         id="path876" />
      <path
         style="opacity:0.2;fill:#000000;fill-opacity:1;stroke:none;stroke-width:1.56371975;stroke-miterlimit:4;stroke-dasharray:none;stroke-opacity:1"
         d="m 41.5,64.949219 v 0.5 C 41.5,66.030929 41.969081,66.5 42.550781,66.5 H 45 V 66 H 42.550781 C 41.969081,66 41.5,65.530929 41.5,64.949219 Z m 10.5,0 C 52,65.530929 51.530918,66 50.949219,66 H 48.5 v 0.5 h 2.449219 C 51.530918,66.5 52,66.030929 52,65.449219 Z m -7,3.5 v 0.5 C 45,69.530919 45.469081,70 46.050781,70 h 1.398438 C 48.030919,70 48.5,69.530919 48.5,68.949219 v -0.5 C 48.5,69.030919 48.030919,69.5 47.449219,69.5 H 46.050781 C 45.469081,69.5 45,69.030919 45,68.449219 Z"
         transform="translate(0,377.26665)"
         id="path881" />
    </g>
  </g>
  <g
     style="display:inline"
     id="layer4">
    <ellipse
       ry="65.999992"
       rx="65"
       cy="34.000008"
       cx="41"
       id="path12039"
       style="opacity:1;fill:url(#radialGradient13889);fill-opacity:1;stroke:none;stroke-width:12.47582626;stroke-miterlimit:4;stroke-dasharray:none;stroke-opacity:1" />
  </g>
  <g
     id="layer3" />
</svg>
