<?xml version="1.0" encoding="UTF-8" standalone="no"?>
<svg
   id="svg8"
   version="1.1"
   viewBox="0 0 108 108"
   height="108"
   width="108"
   sodipodi:docname="ic_launcher_monochrome.svg"
   inkscape:version="1.2.1 (9c6d41e410, 2022-07-14, custom)"
   xmlns:inkscape="http://www.inkscape.org/namespaces/inkscape"
   xmlns:sodipodi="http://sodipodi.sourceforge.net/DTD/sodipodi-0.dtd"
   xmlns:xlink="http://www.w3.org/1999/xlink"
   xmlns="http://www.w3.org/2000/svg"
   xmlns:svg="http://www.w3.org/2000/svg"
   xmlns:rdf="http://www.w3.org/1999/02/22-rdf-syntax-ns#"
   xmlns:cc="http://creativecommons.org/ns#"
   xmlns:dc="http://purl.org/dc/elements/1.1/">
  <sodipodi:namedview
     id="namedview169"
     pagecolor="#ffffff"
     bordercolor="#666666"
     borderopacity="1.0"
     inkscape:showpageshadow="2"
     inkscape:pageopacity="0"
     inkscape:pagecheckerboard="0"
     inkscape:deskcolor="#d2d2d2"
     showgrid="false"
     inkscape:zoom="11.444444"
     inkscape:cx="74.315534"
     inkscape:cy="33.334951"
     inkscape:window-width="2560"
     inkscape:window-height="1380"
     inkscape:window-x="0"
     inkscape:window-y="0"
     inkscape:window-maximized="1"
     inkscape:current-layer="svg8" />
  <defs
     id="defs2">
    <linearGradient
       id="linearGradient13887">
      <stop
         id="stop13883"
         offset="0"
         style="stop-color:#ffffff;stop-opacity:0.1" />
      <stop
         id="stop13885"
         offset="1"
         style="stop-color:#ffffff;stop-opacity:0;" />
    </linearGradient>
    <filter
       id="filter7804"
       style="color-interpolation-filters:sRGB;">
      <feGaussianBlur
         id="feGaussianBlur7802"
         result="blur"
         stdDeviation="1 1" />
    </filter>
    <filter
       id="filter8500"
       style="color-interpolation-filters:sRGB;">
      <feGaussianBlur
         id="feGaussianBlur8498"
         result="blur"
         stdDeviation="1 1" />
    </filter>
    <radialGradient
       gradientTransform="matrix(1.547619,0,0,1.5714284,13.142856,-587.13326)"
       gradientUnits="userSpaceOnUse"
       r="42"
       fy="395.26666"
       fx="18"
       cy="395.26666"
       cx="18"
       id="radialGradient13889"
       xlink:href="#linearGradient13887" />
    <filter
       height="1.16"
       y="-0.079999994"
       width="1.24"
       x="-0.12000001"
       id="filter921"
       style="color-interpolation-filters:sRGB">
      <feGaussianBlur
         id="feGaussianBlur923"
         stdDeviation="1.4999999" />
    </filter>
  </defs>
  <metadata
     id="metadata5">
    <rdf:RDF>
      <cc:Work
         rdf:about="">
        <dc:format>image/svg+xml</dc:format>
        <dc:type
           rdf:resource="http://purl.org/dc/dcmitype/StillImage" />
      </cc:Work>
    </rdf:RDF>
  </metadata>
  <path
     id="rect7684"
     style="fill:#000000;fill-opacity:1;stroke:none;stroke-width:6.79367;stroke-miterlimit:4;stroke-dasharray:none;stroke-opacity:1"
     d="M 39.833984 31.5 C 39.37232 31.5 39 31.885829 39 32.365234 L 39 73.904297 L 39.003906 73.904297 A 1.6666724 1.7307682 0 0 0 40.097656 75.529297 C 40.097656 75.529297 43.166685 76.5 54 76.5 C 64.833315 76.5 67.902344 75.529297 67.902344 75.529297 A 1.6666724 1.7307682 0 0 0 68.996094 73.904297 L 69 73.904297 L 69 32.365234 C 69 31.885839 68.62768 31.5 68.166016 31.5 L 39.833984 31.5 z M 41.638672 33.5 L 66.361328 33.5 C 66.853772 33.5 67.25 33.896228 67.25 34.388672 L 67.25 56.611328 C 67.25 57.103772 66.853772 57.5 66.361328 57.5 L 41.638672 57.5 C 41.146228 57.5 40.75 57.103772 40.75 56.611328 L 40.75 34.388672 C 40.75 33.896228 41.146228 33.5 41.638672 33.5 z M 44.630859 36.25 C 44.142813 36.25 43.75 36.642813 43.75 37.130859 L 43.75 53.869141 C 43.75 54.357187 44.142813 54.75 44.630859 54.75 L 63.369141 54.75 C 63.857187 54.75 64.25 54.357187 64.25 53.869141 L 64.25 37.130859 C 64.25 36.642813 63.857187 36.25 63.369141 36.25 L 44.630859 36.25 z M 46.050781 59.5 L 47.449219 59.5 C 48.030916 59.5 48.5 59.969074 48.5 60.550781 L 48.5 63 L 50.949219 63 C 51.530915 63 52 63.469074 52 64.050781 L 52 65.449219 C 52 66.030926 51.530915 66.5 50.949219 66.5 L 48.5 66.5 L 48.5 68.949219 C 48.5 69.530916 48.030916 70 47.449219 70 L 46.050781 70 C 45.469084 70 45 69.530916 45 68.949219 L 45 66.5 L 42.550781 66.5 C 41.969084 66.5 41.5 66.030926 41.5 65.449219 L 41.5 64.050781 C 41.5 63.469074 41.969084 63 42.550781 63 L 45 63 L 45 60.550781 C 45 59.969084 45.469084 59.5 46.050781 59.5 z M 63.599609 60.800781 A 2.5999999 2.5999999 0 0 1 66.199219 63.400391 A 2.5999999 2.5999999 0 0 1 63.599609 66 A 2.5999999 2.5999999 0 0 1 61 63.400391 A 2.5999999 2.5999999 0 0 1 63.599609 60.800781 z M 57.099609 64.800781 A 2.5999999 2.5999999 0 0 1 59.699219 67.400391 A 2.5999999 2.5999999 0 0 1 57.099609 70 A 2.5999999 2.5999999 0 0 1 54.5 67.400391 A 2.5999999 2.5999999 0 0 1 57.099609 64.800781 z " />
</svg>
