<?xml version="1.0" encoding="UTF-8" standalone="no"?>
<svg
   xmlns:dc="http://purl.org/dc/elements/1.1/"
   xmlns:cc="http://creativecommons.org/ns#"
   xmlns:rdf="http://www.w3.org/1999/02/22-rdf-syntax-ns#"
   xmlns:svg="http://www.w3.org/2000/svg"
   xmlns="http://www.w3.org/2000/svg"
   xmlns:xlink="http://www.w3.org/1999/xlink"
   id="svg8"
   version="1.1"
   viewBox="0 0 108 108"
   height="108"
   width="108">
  <defs
     id="defs2">
    <linearGradient
       id="linearGradient13887">
      <stop
         id="stop13883"
         offset="0"
         style="stop-color:#ffffff;stop-opacity:0.1" />
      <stop
         id="stop13885"
         offset="1"
         style="stop-color:#ffffff;stop-opacity:0;" />
    </linearGradient>
    <filter
       id="filter7804"
       style="color-interpolation-filters:sRGB;">
      <feGaussianBlur
         id="feGaussianBlur7802"
         result="blur"
         stdDeviation="1 1" />
    </filter>
    <filter
       id="filter8500"
       style="color-interpolation-filters:sRGB;">
      <feGaussianBlur
         id="feGaussianBlur8498"
         result="blur"
         stdDeviation="1 1" />
    </filter>
    <filter
       height="1.16"
       y="-0.08"
       width="1.24"
       x="-0.12"
       id="filter12575"
       style="color-interpolation-filters:sRGB">
      <feGaussianBlur
         id="feGaussianBlur12577"
         stdDeviation="1.7" />
    </filter>
    <radialGradient
       gradientTransform="matrix(1.547619,0,0,1.5714284,13.142856,-579.13326)"
       gradientUnits="userSpaceOnUse"
       r="42"
       fy="395.26666"
       fx="18"
       cy="395.26666"
       cx="18"
       id="radialGradient13889"
       xlink:href="#linearGradient13887" />
  </defs>
  <metadata
     id="metadata5">
    <rdf:RDF>
      <cc:Work
         rdf:about="">
        <dc:format>image/svg+xml</dc:format>
        <dc:type
           rdf:resource="http://purl.org/dc/dcmitype/StillImage" />
        <dc:title></dc:title>
      </cc:Work>
    </rdf:RDF>
  </metadata>
  <g
     transform="translate(0,-148)"
     id="layer2" />
  <g
     transform="translate(0,-377.26665)"
     id="layer1">
    <path
       style="opacity:0.2;fill:#020202;fill-opacity:1;stroke:none;stroke-width:7.69948435;stroke-miterlimit:4;stroke-dasharray:none;stroke-opacity:1;filter:url(#filter12575)"
       d="M 39.944445,407.26665 C 39.421222,407.26665 39,407.70408 39,408.24742 v 47.07692 h 0.0037 a 1.8888889,1.9615384 0 0 0 1.239582,1.84278 c 0,0 3.478951,1.09953 15.756729,1.09953 12.277777,0 15.756727,-1.09953 15.756727,-1.09953 a 1.8888889,1.9615384 0 0 0 1.239584,-1.84278 H 73 v -47.07692 c 0,-0.54334 -0.421222,-0.98077 -0.944445,-0.98077 z"
       id="path9129" />
    <path
       id="rect7684"
       d="M 37.944445,405.26665 C 37.421222,405.26665 37,405.70408 37,406.24742 v 47.07692 h 0.0037 a 1.8888889,1.9615384 0 0 0 1.239582,1.84278 c 0,0 3.478951,1.09953 15.756729,1.09953 12.277777,0 15.756727,-1.09953 15.756727,-1.09953 a 1.8888889,1.9615384 0 0 0 1.239584,-1.84278 H 71 v -47.07692 c 0,-0.54334 -0.421222,-0.98077 -0.944445,-0.98077 z"
       style="fill:#fdd827;fill-opacity:1;stroke:none;stroke-width:7.69948435;stroke-miterlimit:4;stroke-dasharray:none;stroke-opacity:1" />
    <g
       transform="matrix(0.55555556,0,0,0.55555556,21.111111,191.1185)"
       id="g5135">
      <rect
         transform="scale(-1)"
         ry="1.8"
         y="-453.26666"
         x="-52"
         height="6"
         width="18"
         id="rect5131"
         style="fill:#373737;fill-opacity:1;stroke:none;stroke-width:2.68066239;stroke-miterlimit:4;stroke-dasharray:none;stroke-opacity:1" />
      <rect
         style="fill:#373737;fill-opacity:1;stroke:none;stroke-width:2.68066239;stroke-miterlimit:4;stroke-dasharray:none;stroke-opacity:1"
         id="rect5143"
         width="18"
         height="6"
         x="441.26666"
         y="-46"
         ry="1.8"
         transform="rotate(90)" />
    </g>
    <circle
       r="2"
       cy="439.26666"
       cx="66"
       id="path5137"
       style="fill:#373737;fill-opacity:1;stroke:none;stroke-width:8;stroke-miterlimit:4;stroke-dasharray:none;stroke-opacity:1" />
    <circle
       r="2"
       style="fill:#373737;fill-opacity:1;stroke:none;stroke-width:8;stroke-miterlimit:4;stroke-dasharray:none;stroke-opacity:1"
       id="circle5139"
       cx="60"
       cy="443.26666" />
    <rect
       style="fill:#373737;fill-opacity:1;stroke:none;stroke-width:3.37499976;stroke-miterlimit:4;stroke-dasharray:none;stroke-opacity:1"
       id="rect6404"
       width="30"
       height="27"
       x="39"
       y="407.26666"
       ry="1" />
    <rect
       ry="1"
       y="410.26666"
       x="42.333305"
       height="21.00005"
       width="23.333389"
       id="rect6417"
       style="fill:#c0c0c0;fill-opacity:1;stroke:none;stroke-width:2.62500596;stroke-miterlimit:4;stroke-dasharray:none;stroke-opacity:1" />
    <rect
       ry="0.5"
       y="451.26666"
       x="50"
       height="1"
       width="3"
       id="rect10145"
       style="opacity:1;fill:#373737;fill-opacity:1;stroke:none;stroke-width:8;stroke-miterlimit:4;stroke-dasharray:none;stroke-opacity:1" />
    <rect
       style="opacity:1;fill:#373737;fill-opacity:1;stroke:none;stroke-width:8;stroke-miterlimit:4;stroke-dasharray:none;stroke-opacity:1"
       id="rect10147"
       width="3"
       height="1"
       x="55"
       y="451.26666"
       ry="0.5" />
    <path
       id="rect12579"
       transform="translate(0,377.26665)"
       d="M 38 28 C 37.446 28 37 28.446 37 29 L 37 30 C 37 29.446 37.446 29 38 29 L 70 29 C 70.554 29 71 29.446 71 30 L 71 29 C 71 28.446 70.554 28 70 28 L 38 28 z "
       style="opacity:0.2;fill:#ffffff;fill-opacity:1;stroke:none;stroke-width:8;stroke-miterlimit:4;stroke-dasharray:none;stroke-opacity:1" />
    <path
       id="path12584"
       transform="translate(0,377.26665)"
       d="M 37 75.058594 L 37 76.058594 L 37.003906 76.058594 A 1.8888889 1.9615384 0 0 0 38.244141 77.900391 C 38.244141 77.900391 41.722222 79 54 79 C 66.277777 79 69.755859 77.900391 69.755859 77.900391 A 1.8888889 1.9615384 0 0 0 70.996094 76.058594 L 71 76.058594 L 71 75.058594 L 70.996094 75.058594 A 1.8888889 1.9615384 0 0 1 69.755859 76.900391 C 69.755859 76.900391 66.277777 78 54 78 C 41.722222 78 38.244141 76.900391 38.244141 76.900391 A 1.8888889 1.9615384 0 0 1 37.003906 75.058594 L 37 75.058594 z "
       style="fill:#000000;fill-opacity:1;stroke:none;stroke-width:7.69948435;stroke-miterlimit:4;stroke-dasharray:none;stroke-opacity:1;opacity:0.2" />
  </g>
  <g
     style="display:inline"
     id="layer4">
    <ellipse
       ry="65.999992"
       rx="65"
       cy="42.000008"
       cx="41"
       id="path12039"
       style="opacity:1;fill:url(#radialGradient13889);fill-opacity:1;stroke:none;stroke-width:12.47582626;stroke-miterlimit:4;stroke-dasharray:none;stroke-opacity:1" />
  </g>
  <g
     id="layer3" />
</svg>
