<?xml version="1.0" encoding="UTF-8" standalone="no"?>
<svg
   id="svg8"
   version="1.1"
   viewBox="0 0 108 108"
   height="108"
   width="108"
   sodipodi:docname="ic_launcher_foreground_bugs.svg"
   xml:space="preserve"
   inkscape:version="1.2.1 (9c6d41e410, 2022-07-14, custom)"
   xmlns:inkscape="http://www.inkscape.org/namespaces/inkscape"
   xmlns:sodipodi="http://sodipodi.sourceforge.net/DTD/sodipodi-0.dtd"
   xmlns:xlink="http://www.w3.org/1999/xlink"
   xmlns="http://www.w3.org/2000/svg"
   xmlns:svg="http://www.w3.org/2000/svg"
   xmlns:rdf="http://www.w3.org/1999/02/22-rdf-syntax-ns#"
   xmlns:cc="http://creativecommons.org/ns#"
   xmlns:dc="http://purl.org/dc/elements/1.1/"><sodipodi:namedview
     id="namedview326"
     pagecolor="#ffffff"
     bordercolor="#666666"
     borderopacity="1.0"
     inkscape:showpageshadow="2"
     inkscape:pageopacity="0.0"
     inkscape:pagecheckerboard="0"
     inkscape:deskcolor="#d1d1d1"
     showgrid="false"
     inkscape:zoom="5.604476"
     inkscape:cx="61.379512"
     inkscape:cy="43.804274"
     inkscape:window-width="2560"
     inkscape:window-height="1380"
     inkscape:window-x="0"
     inkscape:window-y="0"
     inkscape:window-maximized="1"
     inkscape:current-layer="svg8" /><defs
     id="defs2"><linearGradient
       id="linearGradient13887"><stop
         id="stop13883"
         offset="0"
         style="stop-color:#ffffff;stop-opacity:0.1" /><stop
         id="stop13885"
         offset="1"
         style="stop-color:#ffffff;stop-opacity:0;" /></linearGradient><filter
       id="filter7804"
       style="color-interpolation-filters:sRGB;"><feGaussianBlur
         id="feGaussianBlur7802"
         result="blur"
         stdDeviation="1 1" /></filter><filter
       id="filter8500"
       style="color-interpolation-filters:sRGB;"><feGaussianBlur
         id="feGaussianBlur8498"
         result="blur"
         stdDeviation="1 1" /></filter><radialGradient
       gradientTransform="matrix(1.547619,0,0,1.5714284,13.142856,-587.13326)"
       gradientUnits="userSpaceOnUse"
       r="42"
       fy="395.26666"
       fx="18"
       cy="395.26666"
       cx="18"
       id="radialGradient13889"
       xlink:href="#linearGradient13887" /><filter
       height="1.16"
       y="-0.079999994"
       width="1.24"
       x="-0.12000001"
       id="filter921"
       style="color-interpolation-filters:sRGB"><feGaussianBlur
         id="feGaussianBlur923"
         stdDeviation="1.4999999" /></filter></defs><metadata
     id="metadata5"><rdf:RDF><cc:Work
         rdf:about=""><dc:format>image/svg+xml</dc:format><dc:type
           rdf:resource="http://purl.org/dc/dcmitype/StillImage" /></cc:Work></rdf:RDF></metadata><g
     transform="translate(0,-148)"
     id="layer2" /><g
     transform="translate(0,-377.26665)"
     id="layer1" /><g
     id="layer3" /><path
     class="cls-1"
     d="m 58.142295,51.749839 a 0.74958803,0.74958803 0 1 1 0.749448,-0.749727 0.75057675,0.75057675 0 0 1 -0.749448,0.749727 m -8.28459,0 a 0.74958803,0.74958803 0 1 1 0.749448,-0.749727 0.75043551,0.75043551 0 0 1 -0.749448,0.749727 m 8.553384,-4.514895 1.497906,-2.594394 a 0.31170131,0.31170131 0 1 0 -0.539703,-0.312012 l -1.516833,2.627163 c -1.159902,-0.529389 -2.462607,-0.824166 -3.852603,-0.824166 -1.389987,0 -2.692557,0.2952 -3.852459,0.824166 l -1.516689,-2.627163 a 0.31165396,0.31165396 0 1 0 -0.539838,0.311589 l 1.498041,2.594817 C 47.016702,48.633976 45.257346,51.237964 45,54.314569 h 18 c -0.257634,-3.076605 -2.016837,-5.680593 -4.588911,-7.079625"
     id="path78"
     style="fill:#373737;fill-opacity:1;stroke-width:0.0141245" /><path
     d="m 54.690403,41.31026 -1.020872,-1.020873 0.510435,-0.510435 1.020872,1.020872 m -1.531307,1.531308 -1.02087,-1.020872 0.510435,-0.510436 1.02087,1.020872 m 3.062614,0 -0.717161,-0.717164 c 0.08422,-0.313916 0.09699,-0.643147 0.03574,-0.964721 l 0.832011,-2e-6 -10e-7,-0.719714 -1.107645,2e-6 C 56.196196,39.27362 56.094105,39.14091 55.966497,39.0133 55.838888,38.885692 55.706176,38.783602 55.563254,38.69683 l -0.0026,-1.110198 H 54.84094 l -0.0026,0.829459 c -0.319022,-0.0587 -0.648252,-0.04594 -0.962171,0.03829 l -0.717162,-0.717162 -0.510435,0.510437 0.533405,0.533405 c -0.09699,0.07146 -0.191413,0.145474 -0.278187,0.232248 l -0.255218,0.255217 -0.510435,-0.510435 -0.510435,0.510437 0.510435,0.510435 -0.255218,0.255218 c -0.08677,0.08677 -0.160785,0.181208 -0.232249,0.278187 l -0.533405,-0.533407 -0.510435,0.510435 0.717162,0.717164 c -0.191414,0.722267 -0.0076,1.52365 0.558927,2.090233 0.566582,0.566584 1.367967,0.750341 2.090233,0.558928 l 0.717162,0.717161 0.510435,-0.510435 -0.533353,-0.533405 c 0.09697,-0.07147 0.191414,-0.145475 0.278188,-0.232249 l 0.255217,-0.255217 0.510435,0.510436 0.510436,-0.510436 -0.510435,-0.510435 0.255219,-0.255218 c 0.08677,-0.08677 0.160783,-0.181208 0.232247,-0.278187 l 0.533405,0.533405 z"
     id="path2937"
     style="fill:#373737;fill-opacity:1;stroke:none;stroke-width:0.360933;stroke-opacity:1" /></svg>
