<?xml version="1.0" encoding="UTF-8" standalone="no"?>
<!-- Created with Inkscape (http://www.inkscape.org/) -->

<svg
   xmlns:dc="http://purl.org/dc/elements/1.1/"
   xmlns:cc="http://creativecommons.org/ns#"
   xmlns:rdf="http://www.w3.org/1999/02/22-rdf-syntax-ns#"
   xmlns:svg="http://www.w3.org/2000/svg"
   xmlns="http://www.w3.org/2000/svg"
   xmlns:xlink="http://www.w3.org/1999/xlink"
   xmlns:sodipodi="http://sodipodi.sourceforge.net/DTD/sodipodi-0.dtd"
   xmlns:inkscape="http://www.inkscape.org/namespaces/inkscape"
   width="108"
   height="108"
   viewBox="0 0 108 108"
   version="1.1"
   id="svg8"
   inkscape:version="0.92.4 5da689c313, 2019-01-14"
   sodipodi:docname="icon7.svg">
  <defs
     id="defs2">
    <linearGradient
       inkscape:collect="always"
       id="linearGradient13887">
      <stop
         style="stop-color:#ffffff;stop-opacity:0.1"
         offset="0"
         id="stop13883" />
      <stop
         style="stop-color:#ffffff;stop-opacity:0;"
         offset="1"
         id="stop13885" />
    </linearGradient>
    <filter
       style="color-interpolation-filters:sRGB;"
       inkscape:label="Blur"
       id="filter7804">
      <feGaussianBlur
         stdDeviation="1 1"
         result="blur"
         id="feGaussianBlur7802" />
    </filter>
    <filter
       style="color-interpolation-filters:sRGB;"
       inkscape:label="Blur"
       id="filter8500">
      <feGaussianBlur
         stdDeviation="1 1"
         result="blur"
         id="feGaussianBlur8498" />
    </filter>
    <filter
       inkscape:collect="always"
       style="color-interpolation-filters:sRGB"
       id="filter12575"
       x="-0.12"
       width="1.24"
       y="-0.08"
       height="1.16">
      <feGaussianBlur
         inkscape:collect="always"
         stdDeviation="1.7"
         id="feGaussianBlur12577" />
    </filter>
    <radialGradient
       inkscape:collect="always"
       xlink:href="#linearGradient13887"
       id="radialGradient13889"
       cx="18"
       cy="395.26666"
       fx="18"
       fy="395.26666"
       r="42"
       gradientUnits="userSpaceOnUse"
       gradientTransform="matrix(1.547619,0,0,1.5714284,13.142856,-579.13326)" />
  </defs>
  <sodipodi:namedview
     id="base"
     pagecolor="#ffffff"
     bordercolor="#666666"
     borderopacity="1.0"
     inkscape:pageopacity="0.0"
     inkscape:pageshadow="2"
     inkscape:zoom="16.000001"
     inkscape:cx="55.797495"
     inkscape:cy="59.034704"
     inkscape:document-units="px"
     inkscape:current-layer="layer1"
     showgrid="true"
     units="px"
     inkscape:measure-start="0,0"
     inkscape:measure-end="0,0"
     inkscape:window-width="2880"
     inkscape:window-height="1696"
     inkscape:window-x="0"
     inkscape:window-y="104"
     inkscape:window-maximized="0"
     inkscape:snap-bbox="true"
     inkscape:snap-bbox-midpoints="true"
     inkscape:bbox-nodes="true"
     inkscape:snap-bbox-edge-midpoints="true"
     inkscape:snap-global="true"
     inkscape:snap-grids="true">
    <inkscape:grid
       type="xygrid"
       id="grid20"
       color="#3f3fff"
       opacity="0.0627451"
       empcolor="#3f3fff"
       empopacity="0.1254902"
       empspacing="4" />
  </sodipodi:namedview>
  <metadata
     id="metadata5">
    <rdf:RDF>
      <cc:Work
         rdf:about="">
        <dc:format>image/svg+xml</dc:format>
        <dc:type
           rdf:resource="http://purl.org/dc/dcmitype/StillImage" />
        <dc:title />
      </cc:Work>
    </rdf:RDF>
  </metadata>
  <g
     inkscape:groupmode="layer"
     id="layer2"
     inkscape:label="Background"
     transform="translate(0,-148)"
     sodipodi:insensitive="true">
    <rect
       style="fill:#59b4de;fill-opacity:1;stroke:none;stroke-width:3.75780058;stroke-miterlimit:4;stroke-dasharray:none;stroke-opacity:1"
       id="rect1383"
       width="108"
       height="108"
       x="0"
       y="148" />
  </g>
  <g
     inkscape:label="Foreground"
     inkscape:groupmode="layer"
     id="layer1"
     transform="translate(0,-377.26665)">
    <path
       inkscape:connector-curvature="0"
       id="path9129"
       d="M 39.944445,407.26665 C 39.421222,407.26665 39,407.70408 39,408.24742 v 47.07692 h 0.0037 a 1.8888889,1.9615384 0 0 0 1.239582,1.84278 c 0,0 3.478951,1.09953 15.756729,1.09953 12.277777,0 15.756727,-1.09953 15.756727,-1.09953 a 1.8888889,1.9615384 0 0 0 1.239584,-1.84278 H 73 v -47.07692 c 0,-0.54334 -0.421222,-0.98077 -0.944445,-0.98077 z"
       style="opacity:0.2;fill:#020202;fill-opacity:1;stroke:none;stroke-width:7.69948435;stroke-miterlimit:4;stroke-dasharray:none;stroke-opacity:1;filter:url(#filter12575)" />
    <path
       style="fill:#fdd827;fill-opacity:1;stroke:none;stroke-width:7.69948435;stroke-miterlimit:4;stroke-dasharray:none;stroke-opacity:1"
       d="M 37.944445,405.26665 C 37.421222,405.26665 37,405.70408 37,406.24742 v 47.07692 h 0.0037 a 1.8888889,1.9615384 0 0 0 1.239582,1.84278 c 0,0 3.478951,1.09953 15.756729,1.09953 12.277777,0 15.756727,-1.09953 15.756727,-1.09953 a 1.8888889,1.9615384 0 0 0 1.239584,-1.84278 H 71 v -47.07692 c 0,-0.54334 -0.421222,-0.98077 -0.944445,-0.98077 z"
       id="rect7684"
       inkscape:connector-curvature="0" />
    <path
       inkscape:connector-curvature="0"
       id="rect5131"
       d="m 44.333984,436.26665 c -0.554,0 -1,0.446 -1,1 v 2.33398 H 41 c -0.554,0 -1,0.446 -1,1 v 1.33204 c 0,0.554 0.446,1 1,1 h 2.333984 v 2.33398 c 0,0.554 0.446,1 1,1 h 1.332032 c 0.554,0 1,-0.446 1,-1 v -2.33398 H 49 c 0.554,0 1,-0.446 1,-1 v -1.33204 c 0,-0.554 -0.446,-1 -1,-1 h -2.333984 v -2.33398 c 0,-0.554 -0.446,-1 -1,-1 z"
       style="fill:#373737;fill-opacity:1;stroke:none;stroke-width:1.48925686;stroke-miterlimit:4;stroke-dasharray:none;stroke-opacity:1" />
    <circle
       style="fill:#373737;fill-opacity:1;stroke:none;stroke-width:8;stroke-miterlimit:4;stroke-dasharray:none;stroke-opacity:1"
       id="path5137"
       cx="66"
       cy="439.26666"
       r="2" />
    <circle
       cy="443.26666"
       cx="60"
       id="circle5139"
       style="fill:#373737;fill-opacity:1;stroke:none;stroke-width:8;stroke-miterlimit:4;stroke-dasharray:none;stroke-opacity:1"
       r="2" />
    <rect
       ry="1"
       y="407.26666"
       x="39"
       height="27"
       width="30"
       id="rect6404"
       style="fill:#373737;fill-opacity:1;stroke:none;stroke-width:3.37499976;stroke-miterlimit:4;stroke-dasharray:none;stroke-opacity:1" />
    <rect
       style="fill:#c0c0c0;fill-opacity:1;stroke:none;stroke-width:2.62500596;stroke-miterlimit:4;stroke-dasharray:none;stroke-opacity:1"
       id="rect6417"
       width="23.333389"
       height="21.00005"
       x="42.333305"
       y="410.26666"
       ry="1" />
    <rect
       style="opacity:1;fill:#373737;fill-opacity:1;stroke:none;stroke-width:8;stroke-miterlimit:4;stroke-dasharray:none;stroke-opacity:1"
       id="rect10145"
       width="3"
       height="1"
       x="50"
       y="451.26666"
       ry="0.5" />
    <rect
       ry="0.5"
       y="451.26666"
       x="55"
       height="1"
       width="3"
       id="rect10147"
       style="opacity:1;fill:#373737;fill-opacity:1;stroke:none;stroke-width:8;stroke-miterlimit:4;stroke-dasharray:none;stroke-opacity:1" />
    <path
       style="opacity:0.2;fill:#ffffff;fill-opacity:1;stroke:none;stroke-width:8;stroke-miterlimit:4;stroke-dasharray:none;stroke-opacity:1"
       d="M 38 28 C 37.446 28 37 28.446 37 29 L 37 30 C 37 29.446 37.446 29 38 29 L 70 29 C 70.554 29 71 29.446 71 30 L 71 29 C 71 28.446 70.554 28 70 28 L 38 28 z "
       transform="translate(0,377.26665)"
       id="rect12579" />
    <path
       style="fill:#000000;fill-opacity:1;stroke:none;stroke-width:7.69948435;stroke-miterlimit:4;stroke-dasharray:none;stroke-opacity:1;opacity:0.2"
       d="M 37 75.058594 L 37 76.058594 L 37.003906 76.058594 A 1.8888889 1.9615384 0 0 0 38.244141 77.900391 C 38.244141 77.900391 41.722222 79 54 79 C 66.277777 79 69.755859 77.900391 69.755859 77.900391 A 1.8888889 1.9615384 0 0 0 70.996094 76.058594 L 71 76.058594 L 71 75.058594 L 70.996094 75.058594 A 1.8888889 1.9615384 0 0 1 69.755859 76.900391 C 69.755859 76.900391 66.277777 78 54 78 C 41.722222 78 38.244141 76.900391 38.244141 76.900391 A 1.8888889 1.9615384 0 0 1 37.003906 75.058594 L 37 75.058594 z "
       transform="translate(0,377.26665)"
       id="path12584" />
    <path
       style="fill:#f4f4f4;fill-opacity:1;stroke:none;stroke-width:1.48925686;stroke-miterlimit:4;stroke-dasharray:none;stroke-opacity:1;opacity:0.2"
       d="M 44.333984 59 C 43.779984 59 43.333984 59.446 43.333984 60 L 43.333984 60.5 C 43.333984 59.946 43.779984 59.5 44.333984 59.5 L 45.666016 59.5 C 46.220016 59.5 46.666016 59.946 46.666016 60.5 L 46.666016 60 C 46.666016 59.446 46.220016 59 45.666016 59 L 44.333984 59 z M 41 62.333984 C 40.446 62.333984 40 62.779984 40 63.333984 L 40 63.833984 C 40 63.279984 40.446 62.833984 41 62.833984 L 43.333984 62.833984 L 43.333984 62.333984 L 41 62.333984 z M 46.666016 62.333984 L 46.666016 62.833984 L 49 62.833984 C 49.554 62.833984 50 63.279984 50 63.833984 L 50 63.333984 C 50 62.779984 49.554 62.333984 49 62.333984 L 46.666016 62.333984 z "
       transform="translate(0,377.26665)"
       id="path14596" />
    <path
       style="fill:#202020;fill-opacity:1;stroke:none;stroke-width:1.48925686;stroke-miterlimit:4;stroke-dasharray:none;stroke-opacity:1;opacity:0.2"
       d="M 40 64.166016 L 40 64.666016 C 40 65.220016 40.446 65.666016 41 65.666016 L 43.333984 65.666016 L 43.333984 65.166016 L 41 65.166016 C 40.446 65.166016 40 64.720016 40 64.166016 z M 50 64.166016 C 50 64.720016 49.554 65.166016 49 65.166016 L 46.666016 65.166016 L 46.666016 65.666016 L 49 65.666016 C 49.554 65.666016 50 65.220016 50 64.666016 L 50 64.166016 z M 43.333984 67.5 L 43.333984 68 C 43.333984 68.554 43.779984 69 44.333984 69 L 45.666016 69 C 46.220016 69 46.666016 68.554 46.666016 68 L 46.666016 67.5 C 46.666016 68.054 46.220016 68.5 45.666016 68.5 L 44.333984 68.5 C 43.779984 68.5 43.333984 68.054 43.333984 67.5 z "
       transform="translate(0,377.26665)"
       id="path14601" />
    <path
       style="fill:#e9e9e9;fill-opacity:1;stroke:none;stroke-width:8;stroke-miterlimit:4;stroke-dasharray:none;stroke-opacity:1;opacity:0.2"
       d="M 60 64 A 2 2 0 0 0 58 66 A 2 2 0 0 0 58.017578 66.244141 A 2 2 0 0 1 60 64.5 A 2 2 0 0 1 61.982422 66.255859 A 2 2 0 0 0 62 66 A 2 2 0 0 0 60 64 z "
       transform="translate(0,377.26665)"
       id="circle14606" />
    <path
       style="fill:#000000;fill-opacity:1;stroke:none;stroke-width:8;stroke-miterlimit:4;stroke-dasharray:none;stroke-opacity:1;opacity:0.2"
       d="M 58.017578 65.744141 A 2 2 0 0 0 58 66 A 2 2 0 0 0 60 68 A 2 2 0 0 0 62 66 A 2 2 0 0 0 61.982422 65.755859 A 2 2 0 0 1 60 67.5 A 2 2 0 0 1 58.017578 65.744141 z "
       transform="translate(0,377.26665)"
       id="circle14611" />
    <path
       id="path14616"
       d="m 66,437.26665 a 2,2 0 0 0 -2,2 2,2 0 0 0 0.01758,0.24414 A 2,2 0 0 1 66,437.76665 2,2 0 0 1 67.982422,439.52251 2,2 0 0 0 68,439.26665 a 2,2 0 0 0 -2,-2 z"
       style="opacity:0.2;fill:#e9e9e9;fill-opacity:1;stroke:none;stroke-width:8;stroke-miterlimit:4;stroke-dasharray:none;stroke-opacity:1"
       inkscape:connector-curvature="0" />
    <path
       id="path14618"
       d="M 64.017578,439.01079 A 2,2 0 0 0 64,439.26665 a 2,2 0 0 0 2,2 2,2 0 0 0 2,-2 2,2 0 0 0 -0.01758,-0.24414 A 2,2 0 0 1 66,440.76665 2,2 0 0 1 64.017578,439.01079 Z"
       style="opacity:0.2;fill:#000000;fill-opacity:1;stroke:none;stroke-width:8;stroke-miterlimit:4;stroke-dasharray:none;stroke-opacity:1"
       inkscape:connector-curvature="0" />
    <path
       style="opacity:0.2;fill:#ffffff;fill-opacity:1;stroke:none;stroke-width:8;stroke-miterlimit:4;stroke-dasharray:none;stroke-opacity:1"
       d="M 55.5 74 C 55.223 74 55 74.223 55 74.5 C 55 74.535291 55.012641 74.566421 55.019531 74.599609 C 55.067087 74.372785 55.258633 74.199219 55.5 74.199219 L 57.5 74.199219 C 57.741367 74.199219 57.932913 74.372785 57.980469 74.599609 C 57.987359 74.566421 58 74.535291 58 74.5 C 58 74.223 57.777 74 57.5 74 L 55.5 74 z "
       transform="translate(0,377.26665)"
       id="rect14634" />
    <path
       style="opacity:0.2;fill:#040404;fill-opacity:1;stroke:none;stroke-width:8;stroke-miterlimit:4;stroke-dasharray:none;stroke-opacity:1"
       d="M 55.019531 74.400391 C 55.012641 74.433579 55 74.464709 55 74.5 C 55 74.777 55.223 75 55.5 75 L 57.5 75 C 57.777 75 58 74.777 58 74.5 C 58 74.464709 57.987359 74.433579 57.980469 74.400391 C 57.932913 74.627215 57.741367 74.800781 57.5 74.800781 L 55.5 74.800781 C 55.258633 74.800781 55.067087 74.627215 55.019531 74.400391 z "
       transform="translate(0,377.26665)"
       id="rect14639" />
    <path
       id="path14644"
       d="m 50.5,451.26665 c -0.277,0 -0.5,0.223 -0.5,0.5 0,0.0353 0.01264,0.0664 0.01953,0.0996 0.04756,-0.22682 0.239102,-0.40039 0.480469,-0.40039 h 2 c 0.241367,0 0.432913,0.17357 0.480469,0.40039 0.0069,-0.0332 0.01953,-0.0643 0.01953,-0.0996 0,-0.277 -0.223,-0.5 -0.5,-0.5 z"
       style="opacity:0.2;fill:#ffffff;fill-opacity:1;stroke:none;stroke-width:8;stroke-miterlimit:4;stroke-dasharray:none;stroke-opacity:1"
       inkscape:connector-curvature="0" />
    <path
       id="path14646"
       d="m 50.019531,451.66704 c -0.0069,0.0332 -0.01953,0.0643 -0.01953,0.0996 0,0.277 0.223,0.5 0.5,0.5 h 2 c 0.277,0 0.5,-0.223 0.5,-0.5 0,-0.0353 -0.01264,-0.0664 -0.01953,-0.0996 -0.04756,0.22682 -0.239102,0.40039 -0.480469,0.40039 h -2 c -0.241367,0 -0.432913,-0.17357 -0.480469,-0.40039 z"
       style="opacity:0.2;fill:#040404;fill-opacity:1;stroke:none;stroke-width:8;stroke-miterlimit:4;stroke-dasharray:none;stroke-opacity:1"
       inkscape:connector-curvature="0" />
  </g>
  <g
     inkscape:groupmode="layer"
     id="layer4"
     inkscape:label="Finish"
     style="display:inline"
     sodipodi:insensitive="true">
    <ellipse
       style="opacity:1;fill:url(#radialGradient13889);fill-opacity:1;stroke:none;stroke-width:12.47582626;stroke-miterlimit:4;stroke-dasharray:none;stroke-opacity:1"
       id="path12039"
       cx="41"
       cy="42.000008"
       rx="65"
       ry="65.999992" />
  </g>
  <g
     inkscape:groupmode="layer"
     id="layer3"
     inkscape:label="Reserved" />
</svg>
