<?xml version="1.0" encoding="UTF-8" standalone="no"?>
<!-- Created with Inkscape (http://www.inkscape.org/) -->

<svg
   xmlns:dc="http://purl.org/dc/elements/1.1/"
   xmlns:cc="http://creativecommons.org/ns#"
   xmlns:rdf="http://www.w3.org/1999/02/22-rdf-syntax-ns#"
   xmlns:svg="http://www.w3.org/2000/svg"
   xmlns="http://www.w3.org/2000/svg"
   xmlns:xlink="http://www.w3.org/1999/xlink"
   xmlns:sodipodi="http://sodipodi.sourceforge.net/DTD/sodipodi-0.dtd"
   xmlns:inkscape="http://www.inkscape.org/namespaces/inkscape"
   width="108"
   height="108"
   viewBox="0 0 108 108"
   version="1.1"
   id="svg8"
   inkscape:version="0.92.4 5da689c313, 2019-01-14"
   sodipodi:docname="icon7_small.svg">
  <defs
     id="defs2">
    <linearGradient
       inkscape:collect="always"
       id="linearGradient1225">
      <stop
         style="stop-color:#000000;stop-opacity:1;"
         offset="0"
         id="stop1221" />
      <stop
         style="stop-color:#000000;stop-opacity:0;"
         offset="1"
         id="stop1223" />
    </linearGradient>
    <linearGradient
       inkscape:collect="always"
       id="linearGradient13887">
      <stop
         style="stop-color:#ffffff;stop-opacity:0.1"
         offset="0"
         id="stop13883" />
      <stop
         style="stop-color:#ffffff;stop-opacity:0;"
         offset="1"
         id="stop13885" />
    </linearGradient>
    <filter
       style="color-interpolation-filters:sRGB;"
       inkscape:label="Blur"
       id="filter7804">
      <feGaussianBlur
         stdDeviation="1 1"
         result="blur"
         id="feGaussianBlur7802" />
    </filter>
    <filter
       style="color-interpolation-filters:sRGB;"
       inkscape:label="Blur"
       id="filter8500">
      <feGaussianBlur
         stdDeviation="1 1"
         result="blur"
         id="feGaussianBlur8498" />
    </filter>
    <radialGradient
       inkscape:collect="always"
       xlink:href="#linearGradient13887"
       id="radialGradient13889"
       cx="18"
       cy="395.26666"
       fx="18"
       fy="395.26666"
       r="42"
       gradientUnits="userSpaceOnUse"
       gradientTransform="matrix(1.547619,0,0,1.5714284,13.142856,-587.13326)" />
    <filter
       inkscape:collect="always"
       style="color-interpolation-filters:sRGB"
       id="filter921"
       x="-0.12000001"
       width="1.24"
       y="-0.079999994"
       height="1.16">
      <feGaussianBlur
         inkscape:collect="always"
         stdDeviation="1.4999999"
         id="feGaussianBlur923" />
    </filter>
    <linearGradient
       inkscape:collect="always"
       xlink:href="#linearGradient1225"
       id="linearGradient1227"
       x1="39.382812"
       y1="69.935362"
       x2="80.309685"
       y2="108.82623"
       gradientUnits="userSpaceOnUse" />
  </defs>
  <sodipodi:namedview
     id="base"
     pagecolor="#61ceff"
     bordercolor="#666666"
     borderopacity="1.0"
     inkscape:pageopacity="0"
     inkscape:pageshadow="2"
     inkscape:zoom="5.6568546"
     inkscape:cx="-3.2476753"
     inkscape:cy="13.912696"
     inkscape:document-units="px"
     inkscape:current-layer="layer1"
     showgrid="false"
     units="px"
     inkscape:measure-start="0,0"
     inkscape:measure-end="0,0"
     inkscape:window-width="2880"
     inkscape:window-height="1696"
     inkscape:window-x="0"
     inkscape:window-y="104"
     inkscape:window-maximized="0"
     inkscape:snap-bbox="true"
     inkscape:snap-bbox-midpoints="true"
     inkscape:bbox-nodes="true"
     inkscape:snap-bbox-edge-midpoints="true"
     inkscape:snap-global="true"
     inkscape:snap-grids="true">
    <inkscape:grid
       type="xygrid"
       id="grid20"
       color="#3f3fff"
       opacity="0.0627451"
       empcolor="#3f3fff"
       empopacity="0.1254902"
       empspacing="4" />
  </sodipodi:namedview>
  <metadata
     id="metadata5">
    <rdf:RDF>
      <cc:Work
         rdf:about="">
        <dc:format>image/svg+xml</dc:format>
        <dc:type
           rdf:resource="http://purl.org/dc/dcmitype/StillImage" />
        <dc:title></dc:title>
      </cc:Work>
    </rdf:RDF>
  </metadata>
  <g
     inkscape:groupmode="layer"
     id="layer2"
     inkscape:label="Background"
     transform="translate(0,-148)" />
  <g
     inkscape:label="Foreground"
     inkscape:groupmode="layer"
     id="layer1"
     transform="translate(0,-377.26665)">
    <path
       style="display:inline;opacity:0.2;fill:url(#linearGradient1227);fill-opacity:1;stroke:none;stroke-width:14.84305382;stroke-miterlimit:4;stroke-dasharray:none;stroke-opacity:1"
       d="M 68.724609 31.673828 L 39.382812 74.957031 L 77.998047 107.75391 C 78.781497 108.4193 79.94789 108.32447 80.613281 107.54102 L 111.86328 70.746094 C 112.52867 69.962643 112.43384 68.796251 111.65039 68.130859 L 68.724609 31.673828 z "
       id="rect1213"
       transform="translate(0,377.26665)" />
    <path
       inkscape:connector-curvature="0"
       id="rect7684-6"
       d="M 41.833337,410.76665 C 41.371668,410.76665 41,411.15264 41,411.63205 v 41.53844 h 0.0032 a 1.6666724,1.7307682 0 0 0 1.093753,1.62598 c 0,0 3.069674,0.97018 13.903044,0.97018 10.83337,0 13.903043,-0.97018 13.903043,-0.97018 a 1.6666724,1.7307682 0 0 0 1.093754,-1.62598 h 0.0032 v -41.53844 c 0,-0.4794 -0.371668,-0.8654 -0.833337,-0.8654 z"
       style="fill:#000000;fill-opacity:1;stroke:none;stroke-width:6.79367256;stroke-miterlimit:4;stroke-dasharray:none;stroke-opacity:1;opacity:0.2;filter:url(#filter921)" />
    <g
       id="g894">
      <path
         inkscape:connector-curvature="0"
         id="rect7684"
         d="m 39.83334,408.76665 c -0.461669,0 -0.833337,0.38599 -0.833337,0.8654 v 41.53844 h 0.0032 a 1.6666724,1.7307682 0 0 0 1.093753,1.62598 c 0,0 3.069674,0.97018 13.903044,0.97018 10.83337,0 13.903043,-0.97018 13.903043,-0.97018 a 1.6666724,1.7307682 0 0 0 1.093754,-1.62598 h 0.0032 v -41.53844 c 0,-0.4794 -0.371668,-0.8654 -0.833337,-0.8654 z"
         style="fill:#fdd827;fill-opacity:1;stroke:none;stroke-width:6.79367256;stroke-miterlimit:4;stroke-dasharray:none;stroke-opacity:1" />
      <path
         id="path845"
         transform="translate(0,377.26665)"
         d="M 39.833984 31.5 C 39.372315 31.5 39 31.885824 39 32.365234 L 39 33.365234 C 39 32.885824 39.372315 32.5 39.833984 32.5 L 68.166016 32.5 C 68.627685 32.5 69 32.885834 69 33.365234 L 69 32.365234 C 69 31.885834 68.627685 31.5 68.166016 31.5 L 39.833984 31.5 z "
         style="fill:#ffffff;fill-opacity:1;stroke:none;stroke-width:6.79367256;stroke-miterlimit:4;stroke-dasharray:none;stroke-opacity:1;opacity:0.2" />
      <path
         id="path848"
         transform="translate(0,377.26665)"
         d="M 39 72.904297 L 39 73.904297 L 39.003906 73.904297 A 1.6666724 1.7307682 0 0 0 40.097656 75.529297 C 40.097656 75.529297 43.16663 76.5 54 76.5 C 64.83337 76.5 67.902344 75.529297 67.902344 75.529297 A 1.6666724 1.7307682 0 0 0 68.996094 73.904297 L 69 73.904297 L 69 72.904297 L 68.996094 72.904297 A 1.6666724 1.7307682 0 0 1 67.902344 74.529297 C 67.902344 74.529297 64.83337 75.5 54 75.5 C 43.16663 75.5 40.097656 74.529297 40.097656 74.529297 A 1.6666724 1.7307682 0 0 1 39.003906 72.904297 L 39 72.904297 z "
         style="fill:#000000;fill-opacity:1;stroke:none;stroke-width:6.79367256;stroke-miterlimit:4;stroke-dasharray:none;stroke-opacity:1;opacity:0.2" />
    </g>
    <g
       id="g874"
       transform="translate(-6.4999986,4)">
      <circle
         style="fill:#373737;fill-opacity:1;stroke:none;stroke-width:10.58053112;stroke-miterlimit:4;stroke-dasharray:none;stroke-opacity:1"
         id="circle868"
         cx="63.599998"
         cy="440.66666"
         r="2.5999999" />
      <path
         style="opacity:0.2;fill:#fbfbfb;fill-opacity:1;stroke:none;stroke-width:10.58053112;stroke-miterlimit:4;stroke-dasharray:none;stroke-opacity:1"
         d="M 63.599609,60.800781 A 2.5999999,2.5999999 0 0 0 61,63.400391 a 2.5999999,2.5999999 0 0 0 0.01367,0.240234 2.5999999,2.5999999 0 0 1 2.585937,-2.339844 2.5999999,2.5999999 0 0 1 2.587891,2.359375 2.5999999,2.5999999 0 0 0 0.01172,-0.259765 2.5999999,2.5999999 0 0 0 -2.599609,-2.59961 z"
         transform="translate(0,377.26665)"
         id="path870"
         inkscape:connector-curvature="0" />
      <path
         style="opacity:0.2;fill:#000000;fill-opacity:1;stroke:none;stroke-width:10.58053112;stroke-miterlimit:4;stroke-dasharray:none;stroke-opacity:1"
         d="M 61.013672,63.146484 A 2.5999999,2.5999999 0 0 0 61,63.400391 2.5999999,2.5999999 0 0 0 63.599609,66 2.5999999,2.5999999 0 0 0 66.199219,63.400391 2.5999999,2.5999999 0 0 0 66.1875,63.164062 2.5999999,2.5999999 0 0 1 63.599609,65.5 2.5999999,2.5999999 0 0 1 61.013672,63.146484 Z"
         transform="translate(0,377.26665)"
         id="path872"
         inkscape:connector-curvature="0" />
    </g>
    <g
       id="g898">
      <rect
         style="fill:#373737;fill-opacity:1;stroke:none;stroke-width:2.99060988;stroke-miterlimit:4;stroke-dasharray:none;stroke-opacity:1"
         id="rect6404"
         width="26.5"
         height="24"
         x="40.75"
         y="410.76666"
         ry="0.88888896" />
      <rect
         ry="0.88095033"
         y="413.51666"
         x="43.75"
         height="18.5"
         width="20.5"
         id="rect6417"
         style="fill:#c0c0c0;fill-opacity:1;stroke:none;stroke-width:2.30937266;stroke-miterlimit:4;stroke-dasharray:none;stroke-opacity:1" />
    </g>
    <g
       id="g866">
      <circle
         r="2.5999999"
         cy="440.66666"
         cx="63.599998"
         id="path5137"
         style="fill:#373737;fill-opacity:1;stroke:none;stroke-width:10.58053112;stroke-miterlimit:4;stroke-dasharray:none;stroke-opacity:1" />
      <path
         id="circle853"
         transform="translate(0,377.26665)"
         d="M 63.599609 60.800781 A 2.5999999 2.5999999 0 0 0 61 63.400391 A 2.5999999 2.5999999 0 0 0 61.013672 63.640625 A 2.5999999 2.5999999 0 0 1 63.599609 61.300781 A 2.5999999 2.5999999 0 0 1 66.1875 63.660156 A 2.5999999 2.5999999 0 0 0 66.199219 63.400391 A 2.5999999 2.5999999 0 0 0 63.599609 60.800781 z "
         style="fill:#fbfbfb;fill-opacity:1;stroke:none;stroke-width:10.58053112;stroke-miterlimit:4;stroke-dasharray:none;stroke-opacity:1;opacity:0.2" />
      <path
         id="circle858"
         transform="translate(0,377.26665)"
         d="M 61.013672 63.146484 A 2.5999999 2.5999999 0 0 0 61 63.400391 A 2.5999999 2.5999999 0 0 0 63.599609 66 A 2.5999999 2.5999999 0 0 0 66.199219 63.400391 A 2.5999999 2.5999999 0 0 0 66.1875 63.164062 A 2.5999999 2.5999999 0 0 1 63.599609 65.5 A 2.5999999 2.5999999 0 0 1 61.013672 63.146484 z "
         style="fill:#000000;fill-opacity:1;stroke:none;stroke-width:10.58053112;stroke-miterlimit:4;stroke-dasharray:none;stroke-opacity:1;opacity:0.2" />
    </g>
    <g
       id="g889">
      <path
         style="fill:#373737;fill-opacity:1;stroke:none;stroke-width:1.56371975;stroke-miterlimit:4;stroke-dasharray:none;stroke-opacity:1"
         d="m 46.050683,436.76665 c -0.5817,0 -1.050001,0.46832 -1.050001,1.05002 v 2.45066 H 42.55 c -0.5817,0 -1.05,0.46829 -1.05,1.05 v 1.39864 c 0,0.58171 0.4683,1.05002 1.05,1.05002 h 2.450682 v 2.45066 c 0,0.5817 0.468301,1.05 1.050001,1.05 h 1.398634 c 0.5817,0 1.050001,-0.4683 1.050001,-1.05 v -2.45066 h 2.450683 C 51.5317,443.76599 52,443.29768 52,442.71597 v -1.39864 c 0,-0.58171 -0.4683,-1.05 -1.049999,-1.05 h -2.450683 v -2.45066 c 0,-0.58171 -0.468301,-1.05002 -1.050001,-1.05002 z"
         id="rect5131"
         inkscape:connector-curvature="0" />
      <path
         id="path876"
         transform="translate(0,377.26665)"
         d="M 46.050781,59.5 C 45.469081,59.5 45,59.969081 45,60.550781 v 0.5 C 45,60.469081 45.469081,60 46.050781,60 h 1.398438 C 48.030919,60 48.5,60.469071 48.5,61.050781 v -0.5 C 48.5,59.969071 48.030919,59.5 47.449219,59.5 Z m -3.5,3.5 C 41.969081,63 41.5,63.469071 41.5,64.050781 v 0.5 C 41.5,63.969071 41.969081,63.5 42.550781,63.5 H 45 V 63 Z M 48.5,63 v 0.5 h 2.449219 C 51.530918,63.5 52,63.969071 52,64.550781 v -0.5 C 52,63.469071 51.530918,63 50.949219,63 Z"
         style="opacity:0.2;fill:#ffffff;fill-opacity:1;stroke:none;stroke-width:1.56371975;stroke-miterlimit:4;stroke-dasharray:none;stroke-opacity:1"
         inkscape:connector-curvature="0" />
      <path
         id="path881"
         transform="translate(0,377.26665)"
         d="m 41.5,64.949219 v 0.5 C 41.5,66.030929 41.969081,66.5 42.550781,66.5 H 45 V 66 H 42.550781 C 41.969081,66 41.5,65.530929 41.5,64.949219 Z m 10.5,0 C 52,65.530929 51.530918,66 50.949219,66 H 48.5 v 0.5 h 2.449219 C 51.530918,66.5 52,66.030929 52,65.449219 Z m -7,3.5 v 0.5 C 45,69.530919 45.469081,70 46.050781,70 h 1.398438 C 48.030919,70 48.5,69.530919 48.5,68.949219 v -0.5 C 48.5,69.030919 48.030919,69.5 47.449219,69.5 H 46.050781 C 45.469081,69.5 45,69.030919 45,68.449219 Z"
         style="opacity:0.2;fill:#000000;fill-opacity:1;stroke:none;stroke-width:1.56371975;stroke-miterlimit:4;stroke-dasharray:none;stroke-opacity:1"
         inkscape:connector-curvature="0" />
    </g>
  </g>
  <g
     inkscape:groupmode="layer"
     id="layer4"
     inkscape:label="Finish"
     style="display:inline">
    <ellipse
       style="opacity:1;fill:url(#radialGradient13889);fill-opacity:1;stroke:none;stroke-width:12.47582626;stroke-miterlimit:4;stroke-dasharray:none;stroke-opacity:1"
       id="path12039"
       cx="41"
       cy="34.000008"
       rx="65"
       ry="65.999992" />
  </g>
  <g
     inkscape:groupmode="layer"
     id="layer3"
     inkscape:label="Reserved" />
</svg>
