<?xml version="1.0" encoding="UTF-8" standalone="no"?>
<!-- Created with Vectornator Pro for iOS (http://vectornator.io/) -->

<svg
   xmlns:vectornator="http://vectornator.io"
   xmlns:dc="http://purl.org/dc/elements/1.1/"
   xmlns:cc="http://creativecommons.org/ns#"
   xmlns:rdf="http://www.w3.org/1999/02/22-rdf-syntax-ns#"
   xmlns:svg="http://www.w3.org/2000/svg"
   xmlns="http://www.w3.org/2000/svg"
   xmlns:sodipodi="http://sodipodi.sourceforge.net/DTD/sodipodi-0.dtd"
   xmlns:inkscape="http://www.inkscape.org/namespaces/inkscape"
   style="fill-rule:evenodd;clip-rule:evenodd;stroke-linecap:round;stroke-linejoin:round;"
   xml:space="preserve"
   version="1.1"
   viewBox="0 0 1024 1024"
   id="svg25"
   sodipodi:docname="gbcc-maybe.svg"
   inkscape:version="0.92.2 5c3e80d, 2017-08-06"><sodipodi:namedview
     pagecolor="#ffffff"
     bordercolor="#666666"
     borderopacity="1"
     objecttolerance="10"
     gridtolerance="10"
     guidetolerance="10"
     inkscape:pageopacity="0"
     inkscape:pageshadow="2"
     inkscape:window-width="1280"
     inkscape:window-height="705"
     id="namedview27"
     showgrid="false"
     inkscape:zoom="0.4609375"
     inkscape:cx="474.68103"
     inkscape:cy="702.78694"
     inkscape:window-x="0"
     inkscape:window-y="1"
     inkscape:window-maximized="1"
     inkscape:current-layer="Layer 1" /><metadata
     id="metadata2"><vectornator:setting
       key="DisplayWhiteBackground"
       value="0" /><vectornator:setting
       key="RulersVisible"
       value="1" /><vectornator:setting
       key="SnapToEdges"
       value="0" /><vectornator:setting
       key="Units"
       value="Pixels" /><vectornator:setting
       key="DynamicGuides"
       value="0" /><vectornator:setting
       key="SnapToPoints"
       value="0" /><vectornator:setting
       key="CMYKEnabledKey"
       value="0" /><vectornator:setting
       key="SnapToGrid"
       value="1" /><vectornator:setting
       key="ShowGrid"
       value="1" /><vectornator:setting
       key="GridSpacing"
       value="32" /><rdf:RDF><cc:Work
         rdf:about=""><dc:format>image/svg+xml</dc:format><dc:type
           rdf:resource="http://purl.org/dc/dcmitype/StillImage" /></cc:Work></rdf:RDF></metadata><defs
     id="defs4" /><g
     id="Layer 1"
     vectornator:layerName="Layer 1"><path
       style="fill:#008b8b;fill-opacity:1"
       d="m 288,64 c -128,0 -128,128 -128,128 0,7.55859 -0.0669,0.60542 0,7.55859 V 760.44141 768 c 0,0 0,192 96,192 h 512 c 0,0 96,0 96,-192 0,0 -0.12322,0.91217 0,-7.55859 V 199.55859 192 C 864,64 736,64 736,64 Z"
       id="path6"
       inkscape:connector-curvature="0"
       sodipodi:nodetypes="sccccsccccccs" /><path
       stroke="#000000"
       stroke-width="2.5"
       d="M720+608L720+608C746.51+608+768+629.49+768+656L768+656C768+682.51+746.51+704+720+704L720+704C693.49+704+672+682.51+672+656L672+656C672+629.49+693.49+608+720+608Z"
       fill="none"
       stroke-linecap="round"
       opacity="1"
       stroke-linejoin="round"
       id="path10"
       style="fill:#373737;fill-opacity:1;stroke:none" /><path
       stroke="#000000"
       stroke-width="2.5"
       d="M624+736L624+736C650.51+736+672+757.49+672+784L672+784C672+810.51+650.51+832+624+832L624+832C597.49+832+576+810.51+576+784L576+784C576+757.49+597.49+736+624+736Z"
       fill="none"
       stroke-linecap="round"
       opacity="1"
       stroke-linejoin="round"
       id="path12"
       style="fill:#373737;fill-opacity:1;stroke:none" /><path
       stroke="#000000"
       stroke-width="2.5"
       d="M295.637+160L728.363+160C750.254+160+768+177.746+768+199.637L768+204.074L768+240.412L768+472.363C768+494.254+750.254+512+728.363+512L295.637+512C273.746+512+256+494.254+256+472.363L256+199.637C256+177.746+273.746+160+295.637+160Z"
       fill="none"
       stroke-linecap="round"
       opacity="1"
       stroke-linejoin="round"
       id="path14"
       style="fill:#373737;fill-opacity:1;stroke:none" /><path
       style="fill:#373737;fill-opacity:1"
       d="M 372.28125 576 C 361.07925 576 352 585.07925 352 596.28125 L 352 672 L 276.28125 672 C 265.07925 672 256 681.07925 256 692.28125 L 256 747.71875 C 256 758.92075 265.07925 768 276.28125 768 L 352 768 L 352 843.71875 C 352 854.92075 361.07925 864 372.28125 864 L 427.71875 864 C 438.92075 864 448 854.92075 448 843.71875 L 448 768 L 523.71875 768 C 534.92075 768 544 758.92075 544 747.71875 L 544 692.28125 C 544 681.07925 534.92075 672 523.71875 672 L 448 672 L 448 596.28125 C 448 585.07925 438.92075 576 427.71875 576 L 372.28125 576 z "
       id="path20" /></g></svg>