<?xml version="1.0" encoding="UTF-8"?>
<svg width="192" height="6" version="1.1" viewBox="0 0 192 6" xmlns="http://www.w3.org/2000/svg">
	<g transform="translate(-84 -520)" fill="#fff" stroke-linecap="round" stroke-width="2">
		<path transform="matrix(.17681 0 0 .17681 -181.59 282.71)" d="m1519.1 1346.6 16.968 29.389h-33.935z"/>
		<path transform="matrix(.17681 0 0 .17681 -175.59 282.71)" d="m1519.1 1346.6 16.968 29.389h-33.935z"/>
		<path transform="matrix(.17681 0 0 .17681 -169.59 282.71)" d="m1519.1 1346.6 16.968 29.389h-33.935z"/>
		<path transform="matrix(.17681 0 0 .17681 -163.59 282.71)" d="m1519.1 1346.6 16.968 29.389h-33.935z"/>
		<path transform="matrix(.17681 0 0 .17681 -157.59 282.71)" d="m1519.1 1346.6 16.968 29.389h-33.935z"/>
		<path transform="matrix(.17681 0 0 .17681 -151.59 282.71)" d="m1519.1 1346.6 16.968 29.389h-33.935z"/>
		<path transform="matrix(.17681 0 0 .17681 -145.59 282.71)" d="m1519.1 1346.6 16.968 29.389h-33.935z"/>
		<path transform="matrix(.17681 0 0 .17681 -139.59 282.71)" d="m1519.1 1346.6 16.968 29.389h-33.935z"/>
		<path transform="matrix(.17681 0 0 .17681 -133.59 282.71)" d="m1519.1 1346.6 16.968 29.389h-33.935z"/>
		<path transform="matrix(.17681 0 0 .17681 -127.59 282.71)" d="m1519.1 1346.6 16.968 29.389h-33.935z"/>
		<path transform="matrix(.17681 0 0 .17681 -121.59 282.71)" d="m1519.1 1346.6 16.968 29.389h-33.935z"/>
		<path transform="matrix(.17681 0 0 .17681 -115.59 282.71)" d="m1519.1 1346.6 16.968 29.389h-33.935z"/>
		<path transform="matrix(.17681 0 0 .17681 -109.59 282.71)" d="m1519.1 1346.6 16.968 29.389h-33.935z"/>
		<path transform="matrix(.17681 0 0 .17681 -103.59 282.71)" d="m1519.1 1346.6 16.968 29.389h-33.935z"/>
		<path transform="matrix(.17681 0 0 .17681 -97.592 282.71)" d="m1519.1 1346.6 16.968 29.389h-33.935z"/>
		<path transform="matrix(.17681 0 0 .17681 -91.592 282.71)" d="m1519.1 1346.6 16.968 29.389h-33.935z"/>
		<path transform="matrix(.17681 0 0 .17681 -85.592 282.71)" d="m1519.1 1346.6 16.968 29.389h-33.935z"/>
		<path transform="matrix(.17681 0 0 .17681 -79.592 282.71)" d="m1519.1 1346.6 16.968 29.389h-33.935z"/>
		<path transform="matrix(.17681 0 0 .17681 -73.592 282.71)" d="m1519.1 1346.6 16.968 29.389h-33.935z"/>
		<path transform="matrix(.17681 0 0 .17681 -67.592 282.71)" d="m1519.1 1346.6 16.968 29.389h-33.935z"/>
		<path transform="matrix(.17681 0 0 .17681 -61.592 282.71)" d="m1519.1 1346.6 16.968 29.389h-33.935z"/>
		<path transform="matrix(.17681 0 0 .17681 -55.592 282.71)" d="m1519.1 1346.6 16.968 29.389h-33.935z"/>
		<path transform="matrix(.17681 0 0 .17681 -49.592 282.71)" d="m1519.1 1346.6 16.968 29.389h-33.935z"/>
		<path transform="matrix(.17681 0 0 .17681 -43.592 282.71)" d="m1519.1 1346.6 16.968 29.389h-33.935z"/>
		<path transform="matrix(.17681 0 0 .17681 -37.592 282.71)" d="m1519.1 1346.6 16.968 29.389h-33.935z"/>
		<path transform="matrix(.17681 0 0 .17681 -31.592 282.71)" d="m1519.1 1346.6 16.968 29.389h-33.935z"/>
		<path transform="matrix(.17681 0 0 .17681 -25.592 282.71)" d="m1519.1 1346.6 16.968 29.389h-33.935z"/>
		<path transform="matrix(.17681 0 0 .17681 -19.592 282.71)" d="m1519.1 1346.6 16.968 29.389h-33.935z"/>
		<path transform="matrix(.17681 0 0 .17681 -13.592 282.71)" d="m1519.1 1346.6 16.968 29.389h-33.935z"/>
		<path transform="matrix(.17681 0 0 .17681 -7.5918 282.71)" d="m1519.1 1346.6 16.968 29.389h-33.935z"/>
		<path transform="matrix(.17681 0 0 .17681 -1.5918 282.71)" d="m1519.1 1346.6 16.968 29.389h-33.935z"/>
		<path transform="matrix(.17681 0 0 .17681 4.4082 282.71)" d="m1519.1 1346.6 16.968 29.389h-33.935z"/>
	</g>
</svg>
