<?xml version="1.0" encoding="UTF-8"?>
<svg width="192" height="6" version="1.1" viewBox="0 0 192 6" xmlns="http://www.w3.org/2000/svg">
	<g transform="translate(-84 -520)" fill="#fff" stroke-linecap="round" stroke-width="2">
		<path transform="matrix(.17681 0 0 .17681 -184.59 282.71)" d="m1519.1 1346.6 16.968 29.389h-33.935z"/>
		<path transform="matrix(.17681 0 0 .17681 -178.59 282.71)" d="m1519.1 1346.6 16.968 29.389h-33.935z"/>
		<path transform="matrix(.17681 0 0 .17681 -172.59 282.71)" d="m1519.1 1346.6 16.968 29.389h-33.935z"/>
		<path transform="matrix(.17681 0 0 .17681 -166.59 282.71)" d="m1519.1 1346.6 16.968 29.389h-33.935z"/>
		<path transform="matrix(.17681 0 0 .17681 -160.59 282.71)" d="m1519.1 1346.6 16.968 29.389h-33.935z"/>
		<path transform="matrix(.17681 0 0 .17681 -154.59 282.71)" d="m1519.1 1346.6 16.968 29.389h-33.935z"/>
		<path transform="matrix(.17681 0 0 .17681 -148.59 282.71)" d="m1519.1 1346.6 16.968 29.389h-33.935z"/>
		<path transform="matrix(.17681 0 0 .17681 -142.59 282.71)" d="m1519.1 1346.6 16.968 29.389h-33.935z"/>
		<path transform="matrix(.17681 0 0 .17681 -136.59 282.71)" d="m1519.1 1346.6 16.968 29.389h-33.935z"/>
		<path transform="matrix(.17681 0 0 .17681 -130.59 282.71)" d="m1519.1 1346.6 16.968 29.389h-33.935z"/>
		<path transform="matrix(.17681 0 0 .17681 -124.59 282.71)" d="m1519.1 1346.6 16.968 29.389h-33.935z"/>
		<path transform="matrix(.17681 0 0 .17681 -118.59 282.71)" d="m1519.1 1346.6 16.968 29.389h-33.935z"/>
		<path transform="matrix(.17681 0 0 .17681 -112.59 282.71)" d="m1519.1 1346.6 16.968 29.389h-33.935z"/>
		<path transform="matrix(.17681 0 0 .17681 -106.59 282.71)" d="m1519.1 1346.6 16.968 29.389h-33.935z"/>
		<path transform="matrix(.17681 0 0 .17681 -100.59 282.71)" d="m1519.1 1346.6 16.968 29.389h-33.935z"/>
		<path transform="matrix(.17681 0 0 .17681 -94.592 282.71)" d="m1519.1 1346.6 16.968 29.389h-33.935z"/>
		<path transform="matrix(.17681 0 0 .17681 -88.592 282.71)" d="m1519.1 1346.6 16.968 29.389h-33.935z"/>
		<path transform="matrix(.17681 0 0 .17681 -82.592 282.71)" d="m1519.1 1346.6 16.968 29.389h-33.935z"/>
		<path transform="matrix(.17681 0 0 .17681 -76.592 282.71)" d="m1519.1 1346.6 16.968 29.389h-33.935z"/>
		<path transform="matrix(.17681 0 0 .17681 -70.592 282.71)" d="m1519.1 1346.6 16.968 29.389h-33.935z"/>
		<path transform="matrix(.17681 0 0 .17681 -64.592 282.71)" d="m1519.1 1346.6 16.968 29.389h-33.935z"/>
		<path transform="matrix(.17681 0 0 .17681 -58.592 282.71)" d="m1519.1 1346.6 16.968 29.389h-33.935z"/>
		<path transform="matrix(.17681 0 0 .17681 -52.592 282.71)" d="m1519.1 1346.6 16.968 29.389h-33.935z"/>
		<path transform="matrix(.17681 0 0 .17681 -46.592 282.71)" d="m1519.1 1346.6 16.968 29.389h-33.935z"/>
		<path transform="matrix(.17681 0 0 .17681 -40.592 282.71)" d="m1519.1 1346.6 16.968 29.389h-33.935z"/>
		<path transform="matrix(.17681 0 0 .17681 -34.592 282.71)" d="m1519.1 1346.6 16.968 29.389h-33.935z"/>
		<path transform="matrix(.17681 0 0 .17681 -28.592 282.71)" d="m1519.1 1346.6 16.968 29.389h-33.935z"/>
		<path transform="matrix(.17681 0 0 .17681 -22.592 282.71)" d="m1519.1 1346.6 16.968 29.389h-33.935z"/>
		<path transform="matrix(.17681 0 0 .17681 -16.592 282.71)" d="m1519.1 1346.6 16.968 29.389h-33.935z"/>
		<path transform="matrix(.17681 0 0 .17681 -10.592 282.71)" d="m1519.1 1346.6 16.968 29.389h-33.935z"/>
		<path transform="matrix(.17681 0 0 .17681 -4.5918 282.71)" d="m1519.1 1346.6 16.968 29.389h-33.935z"/>
		<path transform="matrix(.17681 0 0 .17681 1.4082 282.71)" d="m1519.1 1346.6 16.968 29.389h-33.935z"/>
		<path transform="matrix(.17681 0 0 .17681 7.4082 282.71)" d="m1519.1 1346.6 16.968 29.389h-33.935z"/>
	</g>
</svg>
