<?xml version="1.0" encoding="UTF-8"?>
<!-- Created with Inkscape (http://www.inkscape.org/) -->
<svg width="360" height="640" version="1.1" viewBox="0 0 360 640" xmlns="http://www.w3.org/2000/svg" xmlns:xlink="http://www.w3.org/1999/xlink">
 <defs>
  <linearGradient id="linearGradient15527" x1="1913" x2="1913" y1="533.7" y2="736.9" gradientTransform="matrix(.634 0 0 .6204 -646.8 1007)" gradientUnits="userSpaceOnUse">
   <stop stop-color="#fff" stop-opacity="0" offset="0"/>
   <stop stop-color="#fff" stop-opacity=".31" offset=".1"/>
   <stop stop-color="#fff" stop-opacity=".59" offset=".2"/>
   <stop stop-color="#fff" stop-opacity=".81" offset=".2906"/>
   <stop stop-color="#fff" stop-opacity=".95" offset=".4"/>
   <stop stop-color="#fff" offset=".5"/>
   <stop stop-color="#fff" stop-opacity=".95" offset=".6"/>
   <stop stop-color="#fff" stop-opacity=".81" offset=".7"/>
   <stop stop-color="#fff" stop-opacity=".59" offset=".8"/>
   <stop stop-color="#fff" stop-opacity=".31" offset=".9"/>
   <stop stop-color="#fff" stop-opacity="0" offset="1"/>
  </linearGradient>
 </defs>
 <g fill="#d4d0d7" stroke="#9e9e9e" stroke-linecap="round" stroke-width="2">
  <rect transform="scale(-1,1)" x="-343" y="325" width="144" height="540" rx="20"/>
  <rect transform="scale(-1,1)" x="-191" y="325" width="180" height="540" rx="40" stop-color="#000000" style="font-variation-settings:normal"/>
  <rect transform="scale(-1,1)" x="-337" y="343" width="314" height="540" rx="17" ry="26" stop-color="#000000" style="font-variation-settings:normal"/>
 </g>
 <g transform="translate(2)" stroke-linecap="round">
  <path d="m138 242c-60.32 0-108 23.73-108 54v46l6 8v128h284v-128l6-8v-46c0-30.27-47.68-54-108-54z" fill="#9e9e9e" stroke-width=".4061"/>
  <path d="m136 244c-59.3 0-104 22.24-104 52v45l6 8v127h280v-127l6-8v-45c0-29.76-44.7-52-104-52z" fill="#d4d0d7" stroke-width=".3992"/>
 </g>
 <g transform="matrix(.2017 0 0 .2007 -205.6 250.4)" fill="#181818" stroke-width=".999">
  <rect x="1208" y="1134" width="1408" height="767.2"/>
  <rect x="1704" y="1004" width="416.5" height="159.4" rx="19.83"/>
 </g>
 <g>
  <rect x="70" y="484" width="220" height="64" stroke-linecap="round" stroke-width=".402"/>
  <rect x="74" y="504" width="212" height="20" fill="#d4d0d7" stroke-linecap="round" stroke-width=".3987"/>
  <rect x="70" y="294" width="220" height="158" rx="8"/>
  <rect x="86" y="308" width="188" height="144" fill="#fff" stroke-linecap="round" stroke-width=".4093"/>
 </g>
 <g transform="matrix(.3252 0 0 .3275 -4.09 -99.66)" stroke-linecap="round">
  <path d="m443.1 1043c-185.5 0-332.1 72.45-332.1 164.9v140.4l18.45 24.42v390.8h873.4v-390.8l18.45-24.42v-140.4c0-92.42-146.6-164.9-332.1-164.9z" fill="#546270" fill-opacity=".6356" stroke-width="1.244"/>
  <rect x="277.1" y="1184" width="578.2" height="439.6" fill="url(#linearGradient15527)" opacity=".5537" stroke-width="1.254"/>
 </g>
 <g transform="skewX(-10.51)" fill="#d1d9eb" stroke-width=".3333" aria-label="printer">
  <path d="m231.4 582.6h1.024q7.566 0 7.566 7.054v14.28q0 7.054-7.566 7.054h-1.024q-3.925 0-5.006-3.072v10.41h-9.671v-35.73h9.5v3.641q0.7964-3.641 5.177-3.641zm-1.081 20.02v-11.66q0-1.252-1.422-1.252h-0.9671q-1.536 0-1.536 1.707v10.75q0 1.707 1.536 1.707h0.9671q1.422 0 1.422-1.252z"/>
  <path d="m259.6 582.4h0.8533v8.42h-3.243q-3.584 0-3.584 3.868v16.38h-9.671v-28.39h9.5v4.38q0.4551-2.162 2.048-3.413 1.593-1.252 4.096-1.252z"/>
  <path d="m262.9 579.8v-6.827h10.01v6.827zm9.842 31.23h-9.671v-28.39h9.671z"/>
  <path d="m291.9 582.6h1.024q7.566 0 7.566 7.054v21.33h-9.671v-20.02q0-1.252-1.422-1.252h-0.9671q-1.536 0-1.536 1.707v19.57h-9.671v-28.39h9.5v3.641q0.7964-3.641 5.177-3.641z"/>
  <path d="m319.2 589.8h-3.584v12.91q0 1.252 1.422 1.252h2.105v7.111h-4.836q-8.363 0-8.363-7.054v-14.22h-3.129v-7.111h3.129v-5.575h9.671v5.575h3.584z"/>
  <path d="m329.8 582.6h6.94q8.363 0 8.363 7.054v9.671h-14.51v3.755q0 1.252 1.422 1.252h2.503q1.422 0 1.422-1.365v-1.593h9.159v2.56q0 7.054-8.363 7.054h-6.94q-8.363 0-8.363-7.054v-14.28q0-7.054 8.363-7.054zm0.7964 11.49h5.348v-3.584q0-1.252-1.422-1.252h-2.503q-1.422 0-1.422 1.252z"/>
  <path d="m364.5 582.4h0.8533v8.42h-3.243q-3.584 0-3.584 3.868v16.38h-9.671v-28.39h9.5v4.38q0.4551-2.162 2.048-3.413 1.593-1.252 4.096-1.252z"/>
 </g>
 <g transform="skewX(-10.51)" fill="#d1d9eb" stroke-width=".3333" aria-label="GBCC">
  <path d="m221.3 559.8h-4.356v-2.066q0-0.5476-0.6222-0.5476h-0.896q-0.6222 0-0.6222 0.5476v9.159q0 0.5476 0.6222 0.5476h0.896q0.6222 0 0.6222-0.5476v-2.663h-1.244v-2.763h5.6v5.749q0 3.086-3.659 3.086h-3.534q-3.659 0-3.659-3.086v-9.806q0-3.086 3.659-3.086h3.534q3.659 0 3.659 3.086z"/>
  <path d="m229.7 560.3v-2.588q0-0.5476-0.6222-0.5476h-1.792v3.684h1.792q0.6222 0 0.6222-0.5476zm0 6.571v-2.613q0-0.5476-0.6222-0.5476h-1.792v3.708h1.792q0.6222 0 0.6222-0.5476zm-6.695-12.57h7.317q3.659 0 3.659 3.086v2.041q0 2.165-1.195 2.812 0.6969 0.2987 0.9458 0.9209 0.2489 0.5973 0.2489 1.643v2.389q0 3.086-3.659 3.086h-7.317z"/>
  <path d="m246.6 560.3h-4.356v-2.564q0-0.5476-0.6222-0.5476h-0.8711q-0.6222 0-0.6222 0.5476v9.159q0 0.5476 0.6222 0.5476h0.8711q0.6222 0 0.6222-0.5476v-2.464h4.356v2.788q0 3.086-3.659 3.086h-3.509q-3.659 0-3.659-3.086v-9.806q0-3.086 3.659-3.086h3.509q3.659 0 3.659 3.086z"/>
  <path d="m258.9 560.3h-4.356v-2.564q0-0.5476-0.6222-0.5476h-0.8711q-0.6222 0-0.6222 0.5476v9.159q0 0.5476 0.6222 0.5476h0.8711q0.6222 0 0.6222-0.5476v-2.464h4.356v2.788q0 3.086-3.659 3.086h-3.509q-3.659 0-3.659-3.086v-9.806q0-3.086 3.659-3.086h3.509q3.659 0 3.659 3.086z"/>
 </g>
 <rect x="86" y="483.4" width="188" height="57.34" fill="#fff" stop-color="#000000" style="font-variation-settings:normal"/>
 <g transform="matrix(.2007 0 0 .2007 -202.6 249.4)">
  <path d="m1398 1348-11.51 19.93h-8.417v99.64h1056v-99.64h-8.417l-11.51-19.93-11.51 19.93h-6.87l-11.51-19.93-11.51 19.93h-6.87l-11.51-19.93-11.51 19.93h-6.87l-11.51-19.93-11.51 19.93h-6.87l-11.51-19.93-11.51 19.93h-6.87l-11.51-19.93-11.51 19.93h-6.87l-11.51-19.93-11.51 19.93h-6.87l-11.51-19.93-11.51 19.93h-6.87l-11.51-19.93-11.51 19.93h-6.87l-11.51-19.93-11.51 19.93h-6.87l-11.51-19.93-11.51 19.93h-6.87l-11.51-19.93-11.51 19.93h-6.87l-11.51-19.93-11.51 19.93h-6.87l-11.51-19.93-11.51 19.93h-6.87l-11.51-19.93-11.51 19.93h-6.87l-11.51-19.93-11.51 19.93h-6.87l-11.51-19.93-11.51 19.93h-6.87l-11.51-19.93-11.51 19.93h-6.87l-11.51-19.93-11.51 19.93h-6.87l-11.51-19.93-11.51 19.93h-6.87l-11.51-19.93-11.51 19.93h-6.87l-11.51-19.93-11.51 19.93h-6.87l-11.51-19.93-11.51 19.93h-6.87l-11.51-19.93-11.51 19.93h-6.87l-11.51-19.93-11.51 19.93h-6.87l-11.51-19.93-11.51 19.93h-6.87l-11.51-19.93-11.51 19.93h-6.87l-11.51-19.93-11.51 19.93h-6.87l-11.51-19.93-11.51 19.93h-6.87l-11.51-19.93-11.51 19.93h-6.87l-11.51-19.93-11.51 19.93h-6.87l-11.51-19.93-11.51 19.93h-6.87l-11.51-19.93-11.51 19.93h-6.87l-11.51-19.93-11.51 19.93h-6.87l-11.51-19.93z" fill="#a1a8ac" stroke-linecap="round" stroke-width="1.924"/>
 </g>
</svg>
